<svg width="40" height="40" viewBox="0 0 40 40" fill="none" xmlns="http://www.w3.org/2000/svg">
<path d="M26.3571 2C25.7871 2 25.2168 2.13 24.6968 2.38987L16.7787 6.34766C15.4814 6.9959 14.6757 8.34637 14.7271 9.78564C15.2215 23.8213 24.4995 29.076 26.3683 29.076C28.6085 29.076 37.5091 23.0931 37.9977 9.78564C38.0491 8.34352 37.2435 6.99312 35.9434 6.34488L28.0169 2.38987C27.4968 2.13 26.9272 2 26.3571 2ZM26.3571 3.71174C26.6628 3.71174 26.9711 3.78319 27.2512 3.92312L35.1805 7.87813C35.8805 8.22652 36.3152 8.95214 36.2866 9.72317C35.8094 22.7651 27.2684 27.2969 26.3655 27.3626C25.4568 27.3055 16.9045 22.8593 16.4416 9.72317C16.413 8.94928 16.8476 8.22374 17.5477 7.87534L25.4625 3.92033C25.7425 3.78041 26.0485 3.71174 26.3571 3.71174ZM31.2147 11.2687C30.9954 11.2687 30.7758 11.3521 30.6086 11.5191L25.2711 16.8535L23.2854 14.869C22.9511 14.5349 22.4081 14.5349 22.0738 14.869C21.7395 15.2031 21.7395 15.7457 22.0738 16.0799L24.6683 18.6728C24.8341 18.8413 25.0538 18.9238 25.2739 18.9238C25.4939 18.9238 25.7137 18.8414 25.8766 18.67L31.8202 12.73C32.1545 12.3959 32.1545 11.8532 31.8202 11.5191C31.6531 11.3521 31.434 11.2687 31.2147 11.2687ZM8.00944 12.2275C5.99783 12.2275 4.38603 13.1871 3.35165 15.0062C2.0401 17.3021 1.66873 20.9518 2.30021 25.2838C2.8917 29.3332 4.28901 33.4394 6.13204 36.5521C6.75209 37.5973 7.91803 38.0999 9.10385 37.8343C10.2925 37.5688 11.1354 36.615 11.2497 35.4042C11.6869 30.8266 12.4213 28.5049 13.4385 28.5049C14.8644 28.5049 15.379 33.6023 15.5704 35.5214C15.6904 36.7236 16.5301 37.6687 17.7073 37.9314C17.9188 37.9771 18.1278 38 18.3335 38C19.2879 38 20.1704 37.5114 20.6819 36.6547C21.6477 35.047 22.4851 33.188 23.1766 31.1291C23.328 30.6807 23.0849 30.1956 22.6363 30.0442C22.1877 29.8929 21.7023 30.1352 21.5509 30.5836C20.9108 32.4969 20.1022 34.2931 19.2136 35.7723C18.9279 36.2521 18.4418 36.3381 18.0846 36.2581C17.9131 36.221 17.3473 36.0412 17.2787 35.3501C16.9358 31.9433 16.4159 26.7914 13.4385 26.7914C10.5868 26.7914 9.93272 31.1549 9.54697 35.2414C9.47839 35.941 8.90647 36.1211 8.73216 36.1611C8.55786 36.2011 7.96647 36.2806 7.60929 35.6781C3.92324 29.4584 2.57756 19.8234 4.84063 15.854C5.57498 14.566 6.60931 13.9409 8.00944 13.9409C8.86381 13.9409 9.68951 14.1891 10.561 14.4518C10.9525 14.5717 11.3612 14.6921 11.7726 14.792C12.2355 14.9034 12.6953 14.6176 12.8068 14.1578C12.9153 13.6952 12.6328 13.2357 12.1728 13.1243C11.8099 13.0358 11.4441 12.9268 11.0555 12.8098C10.104 12.5242 9.11811 12.2275 8.00944 12.2275Z" fill="black"/>
</svg>
