<svg width="36" height="36" viewBox="0 0 36 36" fill="none" xmlns="http://www.w3.org/2000/svg">
<path d="M17.9999 1.43945C8.86818 1.43945 1.43994 8.86769 1.43994 17.9995C1.43994 27.1312 8.86818 34.5595 17.9999 34.5595C19.877 34.5595 21.68 34.2418 23.3634 33.6637C23.2489 33.2288 23.1538 32.7949 23.0653 32.391C23.0545 32.3406 23.0416 32.2909 23.0301 32.2405C21.454 32.7993 19.7654 33.1195 17.9999 33.1195C9.66306 33.1195 2.87994 26.3363 2.87994 17.9995C2.87994 9.66257 9.66306 2.87945 17.9999 2.87945C26.3368 2.87945 33.1199 9.66257 33.1199 17.9995C33.1199 18.5884 33.0772 19.1673 33.0117 19.739C33.5041 19.883 33.9649 20.0813 34.394 20.3268C34.5013 19.5658 34.5599 18.7893 34.5599 17.9995C34.5599 8.86769 27.1317 1.43945 17.9999 1.43945ZM17.9887 5.02961C17.798 5.03259 17.6162 5.11111 17.4834 5.24795C17.3505 5.38478 17.2773 5.56874 17.2799 5.75945V15.9716C16.4427 16.2691 15.8399 17.0601 15.8399 17.9995C15.8399 18.3321 15.9222 18.6433 16.0565 18.9248L11.7309 23.2504C11.6618 23.3167 11.6066 23.3962 11.5686 23.4841C11.5306 23.5721 11.5105 23.6667 11.5095 23.7625C11.5086 23.8583 11.5267 23.9533 11.5629 24.042C11.5991 24.1307 11.6527 24.2112 11.7204 24.279C11.7881 24.3467 11.8687 24.4003 11.9574 24.4365C12.0461 24.4727 12.1411 24.4908 12.2369 24.4899C12.3327 24.4889 12.4273 24.4688 12.5153 24.4308C12.6032 24.3928 12.6827 24.3376 12.749 24.2685L17.0746 19.9429C17.3561 20.0772 17.6673 20.1595 17.9999 20.1595C19.193 20.1595 20.1599 19.1925 20.1599 17.9995C20.1599 17.0601 19.5572 16.2691 18.7199 15.9716V5.75945C18.7213 5.66312 18.7032 5.56751 18.6669 5.47827C18.6306 5.38904 18.5768 5.30799 18.5086 5.23994C18.4404 5.17188 18.3593 5.1182 18.27 5.08207C18.1807 5.04594 18.085 5.0281 17.9887 5.02961ZM27.4542 20.878C27.4142 20.8775 27.3742 20.8804 27.3346 20.8865C25.8749 20.9213 24.6175 21.4057 23.7318 22.2702C22.8123 23.1678 22.3199 24.4453 22.3199 25.8745C22.3199 26.9588 22.7216 27.8111 23.1271 28.5477C23.5327 29.2844 23.9398 29.9321 24.1579 30.7373C24.4232 31.7421 24.6144 32.923 24.9285 33.921C25.0858 34.4207 25.2689 34.8813 25.5712 35.2752C25.8734 35.6691 26.376 35.9995 26.9437 35.9995C27.459 35.9995 27.9892 35.7842 28.3204 35.3779C28.6516 34.9716 28.7788 34.4492 28.7788 33.883C28.7788 32.9607 28.9784 31.7428 29.1599 30.5952C29.3415 31.7363 29.541 32.9599 29.541 33.883C29.541 34.4492 29.6683 34.9716 29.9995 35.3779C30.3307 35.7842 30.8609 35.9995 31.3762 35.9995C31.9465 35.9995 32.4487 35.6655 32.7501 35.2696C33.0515 34.8737 33.2343 34.4108 33.3913 33.9098C33.7052 32.9085 33.8972 31.7266 34.162 30.7373C34.3804 29.9321 34.7871 29.2843 35.1928 28.5477C35.5978 27.8123 35.9974 26.9607 35.9985 25.8787C36.0129 24.4496 35.5278 23.1696 34.612 22.2716C33.6951 21.3727 32.3785 20.8795 30.8474 20.8795C30.233 20.8795 29.6908 20.9856 29.1782 21.1396C28.6706 20.9864 28.1318 20.8838 27.5259 20.8809C27.502 20.8787 27.4781 20.8778 27.4542 20.878ZM30.8474 22.3195C32.0761 22.3195 32.9885 22.695 33.6051 23.2996C34.2217 23.9042 34.5719 24.7618 34.5599 25.8674V25.8702V25.8745C34.5599 26.6139 34.3065 27.1719 33.9313 27.853C33.5562 28.5342 33.0567 29.313 32.7726 30.3604H32.7712V30.3618C32.479 31.4527 32.2818 32.6362 32.0174 33.4795C31.8853 33.9011 31.7304 34.2303 31.604 34.3963C31.4776 34.5624 31.4611 34.5595 31.3762 34.5595C31.1946 34.5595 31.1668 34.5321 31.1146 34.468C31.0624 34.404 30.981 34.2291 30.981 33.883C30.981 32.5108 30.7228 30.8184 30.4692 29.407C30.3612 28.7453 29.744 28.289 29.1698 28.289C28.5956 28.289 27.9886 28.7241 27.8549 29.3788L27.8521 29.3873L27.8507 29.3971C27.5979 30.8347 27.3388 32.5067 27.3388 33.883C27.3388 34.2291 27.256 34.404 27.2038 34.468C27.1517 34.5321 27.1253 34.5595 26.9437 34.5595C26.8562 34.5595 26.8386 34.5628 26.7131 34.3991C26.5875 34.2355 26.4344 33.9087 26.3024 33.4893C26.0384 32.6505 25.8401 31.467 25.5487 30.3646L25.5473 30.3632V30.3604C25.2636 29.313 24.7636 28.5358 24.3885 27.8545C24.0134 27.1731 23.7599 26.6139 23.7599 25.8745C23.7599 24.7671 24.1178 23.907 24.7387 23.301C25.3493 22.705 26.2431 22.3345 27.4415 22.3223C28.4134 22.3991 29.2522 22.8404 29.8518 23.5471C29.9755 23.6927 30.1519 23.7833 30.3423 23.7989C30.5327 23.8144 30.7215 23.7537 30.8671 23.6301C31.0128 23.5064 31.1033 23.33 31.1189 23.1396C31.1344 22.9492 31.0737 22.7604 30.9501 22.6148C30.8661 22.5157 30.7755 22.4225 30.6843 22.3307C30.7417 22.3291 30.7879 22.3195 30.8474 22.3195Z" fill="black"/>
</svg>
