<svg width="607" height="83" viewBox="0 0 607 83" fill="none" xmlns="http://www.w3.org/2000/svg">
<path d="M66.3484 15.2172C63.4394 10.8537 59.4115 7.4971 54.2647 5.14749C49.0061 2.79789 42.8524 1.56714 35.8035 1.56714H0V19.0214H34.4609C38.9363 19.0214 42.4048 20.0283 44.7544 22.0423C46.9921 24.0562 48.2229 26.9653 48.2229 30.5456C48.2229 34.2379 46.9921 37.035 44.7544 39.049C42.4048 41.0629 38.9363 41.958 34.4609 41.958H0V79.8874H22.1534V59.4122H35.8035C42.8524 59.4122 49.0061 58.2934 54.2647 55.9438C59.4115 53.5941 63.4394 50.2376 66.3484 45.874C69.1456 41.6223 70.6001 36.4756 70.6001 30.5456C70.6001 24.7275 69.1456 19.5808 66.3484 15.2172Z" fill="black"/>
<path d="M136.563 55.2724C141.374 52.9228 145.179 49.6781 147.864 45.4265C150.549 41.1748 151.892 36.2518 151.892 30.5456C151.892 24.7275 150.437 19.5808 147.64 15.2172C144.731 10.8537 140.703 7.4971 135.556 5.14749C130.298 2.79789 124.144 1.56714 117.095 1.56714H81.2916V19.0214H115.753C120.228 19.0214 123.696 20.0283 126.046 22.0423C128.284 24.0562 129.514 26.9653 129.514 30.5456C129.514 34.2379 128.284 37.035 126.046 39.049C123.696 41.0629 120.228 41.958 115.753 41.958H81.2916V79.8874H103.445V59.0766H115.529L129.738 79.8874H153.458L136.563 55.2724Z" fill="black"/>
<path d="M267.8 79.1034C273.73 80.6698 279.884 81.453 286.262 81.453C293.646 81.453 300.024 80.3342 305.282 78.0965C310.429 75.8587 314.345 72.7259 317.03 68.9218C319.604 65.1177 320.946 60.866 320.946 56.1668C320.946 50.7963 319.492 46.4327 316.583 43.2999C313.674 40.1671 310.317 37.8175 306.401 36.363C302.485 34.9084 297.562 33.5658 291.632 32.2232C286.262 31.1043 282.458 30.0974 280.108 28.9785C277.646 27.9715 276.528 26.4051 276.528 24.2793C276.528 22.2653 277.535 20.587 279.548 19.2444C281.562 17.9018 284.695 17.2305 289.171 17.2305C296.108 17.2305 303.38 19.2444 310.877 23.2723L317.702 6.82505C313.898 4.58733 309.422 2.90904 304.499 1.79018C299.464 0.671317 294.429 0 289.283 0C281.674 0 275.297 1.11886 270.15 3.35658C265.003 5.5943 261.087 8.72711 258.514 12.5312C255.829 16.3354 254.598 20.6989 254.598 25.3981C254.598 30.8806 255.941 35.2441 258.85 38.3769C261.647 41.6216 265.003 43.9712 269.031 45.4257C272.947 46.8803 277.87 48.2229 283.8 49.4536C289.171 50.6844 292.975 51.8032 295.436 52.9221C297.898 54.041 299.129 55.6074 299.129 57.8451C299.129 62.0968 294.877 64.2226 286.374 64.2226C281.898 64.2226 277.311 63.5513 272.723 62.0968C268.024 60.7541 263.996 58.8521 260.528 56.5025L253.255 72.8378C256.947 75.5231 261.759 77.537 267.8 79.1034Z" fill="black"/>
<path d="M421.919 31.4407L401.667 67.6918L401.779 79.8874H422.143L421.919 31.4407ZM331.067 79.8874H351.542V69.0344L331.067 32.4477V79.8874ZM403.681 1.56714L376.829 46.7691L349.305 1.56714H331.067L351.542 39.4965L371.57 72.1672H381.416L401.556 38.3776L421.359 1.56714H403.681Z" fill="black"/>
<path d="M437.708 1.56714V79.8874H459.861V1.56714H437.708Z" fill="black"/>
<path d="M475.737 1.56714V79.8874H535.26V62.3213H497.891V1.56714H475.737Z" fill="black"/>
<path d="M606.012 1.56714H543.916V18.6857H606.012V1.56714ZM606.012 31.8883H543.916V48.4474H606.012V31.8883ZM543.916 62.7688V79.8874H606.012V62.7688H543.916Z" fill="#1A7BFF"/>
<path d="M193.667 80.3724C189.679 76.7377 176.285 53.4328 175.058 47.8738C170.968 30.2348 183.647 13.2372 201.744 11.8475C215.445 10.8854 227.305 17.941 232.315 30.021C237.019 41.3527 233.645 54.7156 223.931 63.3748C219.228 67.6509 215.547 68.2923 213.911 65.1921C212.48 62.3057 213.502 60.1677 217.49 57.602C220.966 55.3571 224.647 48.9429 225.772 42.9563C227.203 35.58 221.477 26.1725 213.4 22.2171C204.607 17.941 192.644 21.1481 186.714 29.3796C183.033 34.404 182.113 43.7046 184.771 49.1567C186.407 52.4707 198.779 73.9582 202.46 79.8379C203.891 82.1897 203.789 82.1897 199.801 82.1897C197.45 82.1897 194.894 81.4414 193.667 80.3724Z" fill="#1A79FB"/>
<path d="M207.061 80.9075C206.447 80.1592 201.642 72.3553 196.427 63.4823C187.021 47.7676 186.816 47.34 186.816 40.8189C186.816 33.1218 188.759 29.594 195.098 25.8524C200.619 22.5384 209.31 22.5384 214.013 25.8524C223.931 32.8011 225.056 47.1261 216.365 54.2887C212.889 57.175 209.208 57.175 207.776 54.2887C206.754 52.4713 207.163 51.5092 210.333 47.7676C213.502 44.1329 214.013 42.9569 213.502 40.0705C212.275 33.5495 205.016 30.0217 199.392 33.1218C198.268 33.7633 196.734 35.9013 195.916 37.9325C194.076 42.5293 194.382 43.2776 207.265 64.5513C216.467 79.7316 216.774 80.5868 214.627 81.3351C210.946 82.4042 208.083 82.2973 207.061 80.9075Z" fill="#1A79FB"/>
<path d="M182.215 76.2034C173.013 70.7514 167.492 63.1613 164.322 51.8295C158.597 31.0903 170.764 8.64069 191.213 2.0127C211.253 -4.50838 233.849 5.3267 242.336 24.1416C244.789 29.5937 245.096 31.6249 245.096 41.0323C245.096 51.0812 244.892 52.2571 241.722 58.992C237.837 67.1167 228.021 76.8449 223.625 76.8449C218.615 76.8449 218.103 69.3616 223.113 67.7581C224.136 67.4374 227.203 64.6579 229.657 61.6646C240.188 49.4777 239.984 32.1594 229.248 19.8655C220.046 9.38901 205.629 5.64741 192.951 10.5649C184.567 13.8789 175.263 23.6071 172.707 31.8387C169.332 42.8497 170.968 50.1191 180.477 65.7269C184.056 71.6066 187.328 76.9518 187.737 77.7001C188.861 79.6243 187.225 79.1967 182.215 76.2034Z" fill="#1A79FB"/>
</svg>
