<svg width="172" height="40" viewBox="0 0 172 40" fill="none" xmlns="http://www.w3.org/2000/svg">
<g clip-path="url(#clip0_1287_380)">
<path d="M49.0371 28.9992H60.3898V25.7665H52.4989V10.6719H49.0371V28.9992Z" fill="#8C98A4"/>
<path d="M67.2108 29.3821C68.5854 29.3821 69.7945 29.0766 70.8381 28.4657C71.8902 27.8463 72.709 26.9936 73.2945 25.9076C73.8884 24.813 74.1854 23.553 74.1854 22.1276C74.1854 20.7106 73.8926 19.4591 73.3072 18.373C72.7217 17.2785 71.9029 16.4215 70.8508 15.8021C69.8072 15.1827 68.5939 14.873 67.2108 14.873C65.8532 14.873 64.6526 15.1785 63.609 15.7894C62.5654 16.4003 61.7466 17.253 61.1526 18.3476C60.5587 19.4336 60.2617 20.6936 60.2617 22.1276C60.2617 23.5445 60.5502 24.8003 61.1272 25.8948C61.7126 26.9809 62.5272 27.8336 63.5708 28.453C64.6145 29.0724 65.8278 29.3821 67.2108 29.3821ZM67.2108 26.1494C66.1332 26.1494 65.3145 25.7888 64.7545 25.0676C64.2029 24.3379 63.9272 23.3579 63.9272 22.1276C63.9272 20.9312 64.1902 19.9639 64.7163 19.2257C65.2508 18.4791 66.0823 18.1057 67.2108 18.1057C68.3054 18.1057 69.1284 18.4706 69.6799 19.2003C70.2399 19.93 70.5199 20.9057 70.5199 22.1276C70.5199 23.307 70.2442 24.2742 69.6926 25.0294C69.1496 25.776 68.3223 26.1494 67.2108 26.1494Z" fill="#8C98A4"/>
<path d="M81.0315 29.3821C81.6764 29.3821 82.2703 29.3057 82.8134 29.153C83.3649 29.0003 83.8655 28.7839 84.3152 28.5039V29.8912C84.3322 30.4003 84.2006 30.8245 83.9206 31.1639C83.6491 31.5118 83.2843 31.7706 82.8261 31.9403C82.3679 32.1185 81.88 32.2076 81.3625 32.2076C80.8788 32.2076 80.4291 32.1015 80.0134 31.8894C79.6061 31.6773 79.2921 31.3676 79.0715 30.9603L75.8643 32.513C76.3903 33.4039 77.1412 34.1209 78.117 34.6639C79.0928 35.2154 80.1661 35.4912 81.337 35.4912C82.3467 35.4912 83.2843 35.3554 84.1497 35.0839C85.0152 34.8209 85.7449 34.4179 86.3388 33.8748C86.9412 33.3318 87.3528 32.6403 87.5734 31.8003C87.6497 31.5033 87.7006 31.2021 87.7261 30.8966C87.76 30.5997 87.777 30.2815 87.777 29.9421V15.2548H84.7479V16.0185C84.2812 15.6536 83.7509 15.3736 83.157 15.1785C82.5715 14.9748 81.9225 14.873 81.2097 14.873C79.8946 14.873 78.7491 15.187 77.7734 15.8148C76.7976 16.4427 76.0382 17.3039 75.4952 18.3985C74.9606 19.4845 74.6934 20.7276 74.6934 22.1276C74.6934 23.5021 74.9564 24.7366 75.4825 25.8312C76.017 26.9257 76.7594 27.7912 77.7097 28.4276C78.66 29.0639 79.7673 29.3821 81.0315 29.3821ZM81.5915 26.3021C80.8449 26.3021 80.234 26.1154 79.7588 25.7421C79.2837 25.3688 78.9315 24.8682 78.7025 24.2403C78.4734 23.6039 78.3588 22.8997 78.3588 22.1276C78.3588 21.3639 78.4776 20.6682 78.7152 20.0403C78.9528 19.4039 79.3176 18.8991 79.8097 18.5257C80.3103 18.1439 80.9467 17.953 81.7188 17.953C82.8049 17.953 83.5812 18.3391 84.0479 19.1112C84.5146 19.8748 84.7479 20.8803 84.7479 22.1276C84.7479 23.3748 84.5103 24.3845 84.0352 25.1566C83.5685 25.9203 82.754 26.3021 81.5915 26.3021Z" fill="#8C98A4"/>
<path d="M95.9999 29.3821C97.3745 29.3821 98.5836 29.0766 99.6272 28.4657C100.679 27.8463 101.498 26.9936 102.083 25.9076C102.677 24.813 102.974 23.553 102.974 22.1276C102.974 20.7106 102.682 19.4591 102.096 18.373C101.511 17.2785 100.692 16.4215 99.6399 15.8021C98.5963 15.1827 97.3829 14.873 95.9999 14.873C94.6423 14.873 93.4417 15.1785 92.3981 15.7894C91.3545 16.4003 90.5357 17.253 89.9417 18.3476C89.3478 19.4336 89.0508 20.6936 89.0508 22.1276C89.0508 23.5445 89.3393 24.8003 89.9163 25.8948C90.5017 26.9809 91.3163 27.8336 92.3599 28.453C93.4036 29.0724 94.6169 29.3821 95.9999 29.3821ZM95.9999 26.1494C94.9223 26.1494 94.1035 25.7888 93.5435 25.0676C92.992 24.3379 92.7163 23.3579 92.7163 22.1276C92.7163 20.9312 92.9793 19.9639 93.5054 19.2257C94.0399 18.4791 94.8714 18.1057 95.9999 18.1057C97.0945 18.1057 97.9175 18.4706 98.469 19.2003C99.029 19.93 99.309 20.9057 99.309 22.1276C99.309 23.307 99.0332 24.2742 98.4817 25.0294C97.9387 25.776 97.1114 26.1494 95.9999 26.1494Z" fill="#8C98A4"/>
<path d="M104.5 13.3455H107.962V10.291H104.5V13.3455ZM104.5 29.0001H107.962V15.2546H104.5V29.0001Z" fill="#8C98A4"/>
<path d="M110.225 35.1094H113.712V28.5039C114.162 28.7839 114.658 29.0003 115.201 29.153C115.753 29.3057 116.351 29.3821 116.996 29.3821C118.26 29.3821 119.368 29.0639 120.318 28.4276C121.268 27.7912 122.006 26.9257 122.532 25.8312C123.067 24.7366 123.334 23.5021 123.334 22.1276C123.334 20.7276 123.063 19.4845 122.52 18.3985C121.985 17.3039 121.23 16.4427 120.254 15.8148C119.278 15.187 118.133 14.873 116.818 14.873C116.105 14.873 115.452 14.9748 114.858 15.1785C114.272 15.3736 113.746 15.6536 113.28 16.0185V15.2548H110.225V35.1094ZM116.436 26.3021C115.282 26.3021 114.468 25.9203 113.992 25.1566C113.517 24.3845 113.28 23.3748 113.28 22.1276C113.28 20.8803 113.513 19.8748 113.98 19.1112C114.455 18.3391 115.231 17.953 116.309 17.953C117.081 17.953 117.713 18.1439 118.205 18.5257C118.706 18.8991 119.075 19.4039 119.312 20.0403C119.55 20.6682 119.669 21.3639 119.669 22.1276C119.669 22.8997 119.554 23.6039 119.325 24.2403C119.096 24.8682 118.744 25.3688 118.269 25.7421C117.794 26.1154 117.183 26.3021 116.436 26.3021Z" fill="#8C98A4"/>
<path d="M129.606 29.3821C131.404 29.3821 132.813 28.9791 133.831 28.173C134.849 27.3669 135.358 26.2597 135.358 24.8512C135.358 23.7821 135.027 22.9379 134.366 22.3185C133.712 21.6991 132.601 21.1857 131.031 20.7785C129.962 20.5069 129.164 20.2863 128.638 20.1166C128.121 19.947 127.777 19.7815 127.607 19.6203C127.446 19.4591 127.366 19.2597 127.366 19.0221C127.366 18.6233 127.556 18.3179 127.938 18.1057C128.329 17.8936 128.842 17.8088 129.478 17.8512C130.827 17.953 131.566 18.53 131.693 19.5821L135.231 18.9457C135.053 17.6985 134.442 16.71 133.398 15.9803C132.355 15.2421 131.023 14.873 129.402 14.873C127.739 14.873 126.411 15.2633 125.418 16.0439C124.426 16.8245 123.929 17.8766 123.929 19.2003C123.929 20.2524 124.273 21.0839 124.96 21.6948C125.647 22.2973 126.831 22.8148 128.511 23.2476C129.504 23.5106 130.233 23.7227 130.7 23.8839C131.175 24.0451 131.481 24.2106 131.616 24.3803C131.752 24.5415 131.82 24.7579 131.82 25.0294C131.82 25.4621 131.65 25.8015 131.311 26.0476C130.972 26.2851 130.488 26.4039 129.86 26.4039C129.096 26.4039 128.464 26.2215 127.964 25.8566C127.472 25.4918 127.153 24.987 127.009 24.3421L123.471 24.8766C123.7 26.3106 124.345 27.4221 125.406 28.2112C126.475 28.9918 127.875 29.3821 129.606 29.3821Z" fill="#8C98A4"/>
<path d="M141.744 29.4067C142.737 29.4067 143.602 29.2412 144.341 28.9103C145.079 28.5794 145.698 28.1382 146.199 27.5867V28.9994H149.253V15.2539H145.766V22.2285C145.766 23.077 145.668 23.7642 145.473 24.2903C145.287 24.8079 145.045 25.2024 144.748 25.4739C144.451 25.737 144.133 25.9151 143.793 26.0085C143.454 26.1018 143.136 26.1485 142.839 26.1485C142.101 26.1485 141.528 25.983 141.121 25.6521C140.722 25.3212 140.433 24.9097 140.255 24.4176C140.077 23.9254 139.971 23.4376 139.937 22.9539C139.903 22.4618 139.886 22.0588 139.886 21.7448V15.2539H136.373V22.9667C136.373 23.1957 136.39 23.5606 136.424 24.0612C136.458 24.5618 136.556 25.1176 136.717 25.7285C136.878 26.3309 137.145 26.9121 137.519 27.4721C137.901 28.0321 138.431 28.4945 139.11 28.8594C139.788 29.2242 140.667 29.4067 141.744 29.4067Z" fill="#8C98A4"/>
<path d="M151.258 29.0002H154.745V20.6765C154.745 19.8875 154.961 19.2469 155.394 18.7547C155.835 18.2541 156.416 18.0038 157.138 18.0038C157.893 18.0038 158.483 18.2584 158.907 18.7675C159.339 19.2681 159.556 19.9723 159.556 20.8802V29.0002H163.018V20.6765C163.018 19.8875 163.234 19.2469 163.667 18.7547C164.108 18.2541 164.689 18.0038 165.41 18.0038C166.166 18.0038 166.755 18.2584 167.179 18.7675C167.612 19.2681 167.829 19.9723 167.829 20.8802V29.0002H171.29V19.9638C171.29 18.462 170.887 17.2487 170.081 16.3238C169.284 15.3905 168.1 14.9238 166.53 14.9238C165.648 14.9238 164.838 15.1147 164.099 15.4965C163.361 15.8784 162.772 16.4002 162.33 17.062C161.974 16.4172 161.465 15.8996 160.803 15.5093C160.141 15.119 159.318 14.9238 158.334 14.9238C157.502 14.9238 156.739 15.0893 156.043 15.4202C155.347 15.7426 154.77 16.1881 154.312 16.7565V15.2547H151.258V29.0002Z" fill="#8C98A4"/>
<path d="M20 0C8.9543 0 0 8.9543 0 20C11.0457 20 20 11.0457 20 0Z" fill="#8C98A4"/>
<path d="M20 40C31.0457 40 40 31.0457 40 20C28.9543 20 20 28.9543 20 40Z" fill="#8C98A4"/>
<path d="M20 0C31.0457 0 40 8.9543 40 20C28.9543 20 20 11.0457 20 0Z" fill="#8C98A4"/>
<path d="M20 40C8.9543 40 -9.65645e-07 31.0457 0 20C11.0457 20 20 28.9543 20 40Z" fill="#8C98A4"/>
</g>
<defs>
<clipPath id="clip0_1287_380">
<rect width="172" height="40" fill="white"/>
</clipPath>
</defs>
</svg>
