<svg width="36" height="36" viewBox="0 0 36 36" fill="none" xmlns="http://www.w3.org/2000/svg">
<path d="M28.7999 0.720703C28.6617 0.720725 28.5264 0.760514 28.4102 0.83532C28.294 0.910126 28.2018 1.01679 28.1446 1.14258L24.5446 9.06258C24.4947 9.17225 24.4732 9.29268 24.4819 9.41284C24.4906 9.533 24.5294 9.64905 24.5946 9.75035C24.6598 9.85166 24.7494 9.93499 24.8551 9.9927C24.9609 10.0504 25.0794 10.0807 25.1999 10.0807H28.3949L26.6722 15.627C26.6221 15.7883 26.6302 15.9622 26.6954 16.1182C26.7605 16.2741 26.8784 16.4022 27.0284 16.48C27.1785 16.5578 27.3511 16.5803 27.516 16.5437C27.681 16.507 27.8279 16.4135 27.9308 16.2795L35.1308 6.91945C35.2127 6.81285 35.2631 6.68546 35.2764 6.55168C35.2896 6.41791 35.2651 6.2831 35.2057 6.16252C35.1463 6.04193 35.0543 5.94039 34.9402 5.86938C34.826 5.79836 34.6943 5.76072 34.5599 5.7607H32.2016L34.4657 1.79789C34.5282 1.68834 34.5609 1.56428 34.5605 1.43812C34.56 1.31197 34.5264 1.18815 34.463 1.07906C34.3996 0.969979 34.3087 0.879458 34.1994 0.816565C34.09 0.753672 33.966 0.720615 33.8399 0.720703H28.7999ZM14.0104 1.4393C13.9647 1.43824 13.919 1.44154 13.8739 1.44914C13.8716 1.4496 13.8693 1.45007 13.8669 1.45055C7.28692 1.54839 2.87988 5.78274 2.87988 12.0607C2.87988 14.6988 3.96255 16.5884 5.10879 18.5885C5.88927 19.9508 6.69594 21.358 7.16754 23.0716C7.44186 24.0919 7.68585 25.1837 7.92129 26.2385C8.87601 30.5182 9.7781 34.5607 12.7841 34.5607C14.8786 34.5607 16.1282 33.0824 16.1282 30.6063C16.1282 27.5305 16.7957 23.5624 17.2939 20.7752C17.3897 20.3137 17.7505 20.1693 18.0407 20.1607C18.1731 20.1636 18.6109 20.2133 18.7016 20.7584C19.4778 25.0085 19.8716 28.2418 19.8716 30.6063C19.8716 33.0824 21.1212 34.5607 23.2157 34.5607C26.2094 34.5607 27.1104 30.5354 28.0644 26.2737C28.3042 25.2045 28.5522 24.0983 28.8308 23.0759C29.3031 21.3579 30.1091 19.9493 30.8896 18.5885C32.0365 16.5876 33.1199 14.6993 33.1199 12.0691C33.1206 12.013 33.1143 11.958 33.1143 11.9018L31.3846 14.1504C31.0231 15.4442 30.3687 16.602 29.6408 17.8713C28.8157 19.3113 27.9627 20.7997 27.4414 22.6948C27.1534 23.7517 26.9022 24.8729 26.6596 25.9587C25.8712 29.4795 25.056 33.1207 23.2157 33.1207C21.9521 33.1207 21.3116 32.2746 21.3116 30.6063C21.3116 28.1209 20.9211 24.8957 20.1205 20.5109C19.947 19.4611 19.1222 18.743 18.0688 18.7221C18.0537 18.7214 18.0382 18.7207 18.0224 18.7207C16.9755 18.7207 16.101 19.4397 15.8807 20.5024C15.3687 23.3637 14.6882 27.416 14.6882 30.6063C14.6882 32.2746 14.0477 33.1207 12.7841 33.1207C10.9323 33.1207 10.1153 29.4637 9.32613 25.9263C9.08709 24.8557 8.84059 23.7482 8.55691 22.6934C8.03563 20.8005 7.18266 19.312 6.35754 17.8727C5.26458 15.9633 4.31988 14.3157 4.31988 12.0607C4.31988 6.50952 8.12462 2.91592 14.0174 2.88352C16.5701 3.07689 18.7982 4.23422 20.3736 6.06305C20.4347 6.13678 20.5098 6.1976 20.5946 6.24195C20.6795 6.2863 20.7723 6.31329 20.8677 6.32134C20.9631 6.3294 21.0591 6.31835 21.1502 6.28886C21.2412 6.25936 21.3255 6.212 21.398 6.14955C21.4706 6.0871 21.53 6.01081 21.5727 5.92515C21.6154 5.83949 21.6406 5.74616 21.6468 5.65064C21.653 5.55512 21.6402 5.45932 21.6089 5.36884C21.5777 5.27835 21.5287 5.19501 21.4649 5.12367C20.8117 4.36541 20.0548 3.71026 19.2219 3.16617C20.0422 2.97939 20.9584 2.8807 21.9683 2.8807C23.2636 2.8807 24.4587 3.05798 25.5444 3.38414L26.1449 2.06367C24.8762 1.65975 23.4803 1.4407 21.9683 1.4407C20.4909 1.4407 19.1684 1.62685 18.0322 1.99477C16.8968 1.62685 15.5736 1.4407 14.0961 1.4407C14.0875 1.4407 14.0794 1.4421 14.0708 1.44211C14.0507 1.44032 14.0305 1.43939 14.0104 1.4393ZM29.2639 2.1607H32.5982L30.3341 6.12352C30.2715 6.23306 30.2388 6.35713 30.2393 6.48328C30.2398 6.60944 30.2734 6.73326 30.3368 6.84234C30.4001 6.95143 30.491 7.04195 30.6004 7.10484C30.7098 7.16773 30.8337 7.20079 30.9599 7.2007H33.0974L29.24 12.2168L30.0599 9.57445C30.0934 9.46668 30.1011 9.35255 30.0823 9.24126C30.0636 9.12998 30.019 9.02465 29.9521 8.93378C29.8851 8.84291 29.7978 8.76904 29.6971 8.71813C29.5964 8.66722 29.4851 8.6407 29.3722 8.6407H26.3179L29.2639 2.1607Z" fill="black"/>
</svg>
