<svg width="40" height="40" viewBox="0 0 40 40" fill="none" xmlns="http://www.w3.org/2000/svg">
<path d="M19.2163 1C16.3053 1 14.0048 2.15398 12.4712 3.8658C10.9375 5.58002 10.1538 7.82812 10.1538 10.0403C10.1538 12.0299 10.5938 14.3043 10.726 14.9483C10.3774 15.2596 10.1538 15.7025 10.1538 16.2005C10.1538 16.5979 10.274 16.9379 10.3726 17.2707C10.4207 17.4383 10.4688 17.5939 10.5 17.7112C10.5312 17.8285 10.5385 17.9434 10.5385 17.8548C10.5385 18.688 11.2404 19.3392 12.0673 19.3679C12.1803 21.7429 13.3293 23.8402 15.0769 25.2216V27.5081C14.1899 27.7762 12.0601 28.4609 9.89183 29.4808C8.47596 30.1464 7.05289 30.9485 5.94471 31.8989C4.83654 32.8494 4 33.9866 4 35.3226V39H36V35.3226C36 33.9866 35.1635 32.8494 34.0553 31.8989C32.9471 30.9485 31.524 30.1464 30.1082 29.4808C27.9399 28.4609 25.8101 27.7762 24.9231 27.5081V25.224C26.6707 23.8426 27.8197 21.7453 27.9327 19.3679C28.7596 19.3392 29.4615 18.688 29.4615 17.8548C29.4615 17.9434 29.4688 17.8285 29.5 17.7112C29.5312 17.5939 29.5793 17.4383 29.6274 17.2707C29.726 16.9379 29.8462 16.5979 29.8462 16.2005C29.8462 15.6977 29.6178 15.2548 29.2668 14.9412C29.3798 14.2947 29.8462 11.5271 29.8462 9.58065C29.8462 7.37802 29.0192 5.80028 27.9038 4.82107C26.9014 3.94481 25.7236 3.59287 24.6803 3.51865C24.512 3.2529 24.2139 2.83632 23.5962 2.35509C22.7091 1.66797 21.2861 1 19.2163 1ZM19.2163 2.22581C21.024 2.22581 22.1466 2.78364 22.8365 3.32233C23.5288 3.86101 23.7572 4.33506 23.7572 4.33506L23.9255 4.67742H24.3077C25.1274 4.67742 26.2308 4.98866 27.0889 5.74282C27.9495 6.49698 28.6154 7.6749 28.6154 9.58065C28.6154 11.2901 28.2067 13.7848 28.0865 14.4839C28.0841 14.4839 28.0817 14.4839 28.0769 14.4839C28.024 14.4839 28.0337 14.4958 28 14.5006V12.6452C28 10.5479 27.1394 9.13773 26.274 8.30217C25.4087 7.46661 24.5024 7.16016 24.5024 7.16016L24.1514 7.04284L23.8822 7.29902C23.8822 7.29902 23.4952 7.67729 22.5601 8.10345C21.625 8.52961 20.1779 8.96774 18.1538 8.96774C17.0457 8.96774 15.5865 9.35799 14.3197 10.239C13.0577 11.1177 12.0072 12.5542 12.0024 14.503C11.9688 14.4982 11.976 14.4839 11.9231 14.4839C11.9135 14.4839 11.9014 14.4863 11.8918 14.4863C11.7212 13.5909 11.3846 11.6109 11.3846 10.0403C11.3846 8.11782 12.0745 6.14982 13.3894 4.6846C14.7043 3.21699 16.6274 2.22581 19.2163 2.22581ZM24.3077 8.4506C24.4567 8.50806 24.8462 8.63017 25.4183 9.18082C26.0913 9.83203 26.7692 10.8711 26.7692 12.6452V16.5093L27.6947 15.9682C27.8534 15.8773 28 15.7959 28.1034 15.7432C28.1154 15.736 28.1202 15.736 28.1322 15.7288C28.4135 15.7576 28.6154 15.9539 28.6154 16.1981V16.2005C28.6154 16.246 28.5409 16.6051 28.4471 16.9259C28.399 17.0839 28.351 17.2443 28.3101 17.3904C28.2716 17.5364 28.2308 17.6394 28.2308 17.8548C28.2308 18.0176 28.0962 18.1613 27.8846 18.1613H26.7692V18.9992C26.7692 22.3223 24.363 25.0684 21.1947 25.631L21.0192 25.6598L20.887 25.7819C20.6466 25.9997 20.3438 26.129 20 26.129C19.6562 26.129 19.3534 25.9997 19.113 25.7819L18.9808 25.6598L18.8053 25.631C15.637 25.0684 13.2308 22.3223 13.2308 18.9992V18.1613H12.1154C11.9038 18.1613 11.7692 18.0176 11.7692 17.8548C11.7692 17.6394 11.7284 17.5364 11.6875 17.3904C11.6466 17.2443 11.5986 17.0839 11.5505 16.9259C11.4567 16.6051 11.3846 16.246 11.3846 16.2005C11.3846 15.9539 11.5865 15.7576 11.8678 15.7288C11.8798 15.736 11.8846 15.736 11.8966 15.7432C12 15.7959 12.1466 15.8773 12.3053 15.9682L13.2308 16.5093V14.515C13.2308 12.9875 13.9952 11.9604 15.024 11.2446C16.0529 10.5287 17.3606 10.1935 18.1538 10.1935C20.3582 10.1935 21.988 9.71232 23.0721 9.21913C23.8774 8.85282 24.0889 8.62777 24.3077 8.4506ZM16.6154 15.7097C16.1058 15.7097 15.6923 16.1215 15.6923 16.629C15.6923 17.1366 16.1058 17.5484 16.6154 17.5484C17.125 17.5484 17.5385 17.1366 17.5385 16.629C17.5385 16.1215 17.125 15.7097 16.6154 15.7097ZM23.3846 15.7097C22.875 15.7097 22.4615 16.1215 22.4615 16.629C22.4615 17.1366 22.875 17.5484 23.3846 17.5484C23.8942 17.5484 24.3077 17.1366 24.3077 16.629C24.3077 16.1215 23.8942 15.7097 23.3846 15.7097ZM16.3077 26.0213C16.9639 26.3637 17.6731 26.627 18.4255 26.7778C18.8606 27.1226 19.399 27.3548 20 27.3548C20.5986 27.3548 21.1346 27.1226 21.5673 26.7802C22.3221 26.6318 23.0337 26.3684 23.6923 26.0237V28.5806C23.6923 28.8009 23.5192 29.2031 23.1611 29.6365C22.8005 30.0722 22.2909 30.5271 21.774 30.9341C20.8774 31.6356 20.1947 32.021 19.9712 32.1527C19.7476 32.0522 19.0817 31.7697 18.2043 31.1472C17.1899 30.4241 16.3077 29.4497 16.3077 28.5806V26.0213ZM15.0962 28.7913C15.2067 30.2661 16.399 31.3698 17.488 32.1431C18.6274 32.9548 19.7572 33.436 19.7572 33.436L20.0385 33.5533L20.3053 33.4049C20.3053 33.4049 21.4135 32.7728 22.5337 31.8965C23.0938 31.4608 23.6611 30.958 24.1082 30.417C24.512 29.9286 24.8438 29.3994 24.9087 28.7913C25.8942 29.1002 27.7139 29.7107 29.5841 30.5917C30.9375 31.2286 32.2837 31.9971 33.2524 32.8279C34.2212 33.6586 34.7692 34.5134 34.7692 35.3226V37.7742H5.23077V35.3226C5.23077 34.5134 5.77885 33.6586 6.7476 32.8279C7.71635 31.9971 9.0625 31.2286 10.4159 30.5917C12.2909 29.7107 14.113 29.1002 15.0962 28.7913ZM7.69231 35.3226C7.35337 35.3226 7.07692 35.5979 7.07692 35.9355C7.07692 36.2731 7.35337 36.5484 7.69231 36.5484C8.03125 36.5484 8.30769 36.2731 8.30769 35.9355C8.30769 35.5979 8.03125 35.3226 7.69231 35.3226ZM10.1538 35.3226C9.8149 35.3226 9.53846 35.5979 9.53846 35.9355C9.53846 36.2731 9.8149 36.5484 10.1538 36.5484C10.4928 36.5484 10.7692 36.2731 10.7692 35.9355C10.7692 35.5979 10.4928 35.3226 10.1538 35.3226ZM12.6154 35.3226C12.2764 35.3226 12 35.5979 12 35.9355C12 36.2731 12.2764 36.5484 12.6154 36.5484C12.9543 36.5484 13.2308 36.2731 13.2308 35.9355C13.2308 35.5979 12.9543 35.3226 12.6154 35.3226ZM15.0769 35.3226C14.738 35.3226 14.4615 35.5979 14.4615 35.9355C14.4615 36.2731 14.738 36.5484 15.0769 36.5484C15.4159 36.5484 15.6923 36.2731 15.6923 35.9355C15.6923 35.5979 15.4159 35.3226 15.0769 35.3226ZM17.5385 35.3226C17.1995 35.3226 16.9231 35.5979 16.9231 35.9355C16.9231 36.2731 17.1995 36.5484 17.5385 36.5484C17.8774 36.5484 18.1538 36.2731 18.1538 35.9355C18.1538 35.5979 17.8774 35.3226 17.5385 35.3226ZM20 35.3226C19.6611 35.3226 19.3846 35.5979 19.3846 35.9355C19.3846 36.2731 19.6611 36.5484 20 36.5484C20.3389 36.5484 20.6154 36.2731 20.6154 35.9355C20.6154 35.5979 20.3389 35.3226 20 35.3226ZM22.4615 35.3226C22.1226 35.3226 21.8462 35.5979 21.8462 35.9355C21.8462 36.2731 22.1226 36.5484 22.4615 36.5484C22.8005 36.5484 23.0769 36.2731 23.0769 35.9355C23.0769 35.5979 22.8005 35.3226 22.4615 35.3226ZM24.9231 35.3226C24.5841 35.3226 24.3077 35.5979 24.3077 35.9355C24.3077 36.2731 24.5841 36.5484 24.9231 36.5484C25.262 36.5484 25.5385 36.2731 25.5385 35.9355C25.5385 35.5979 25.262 35.3226 24.9231 35.3226ZM27.3846 35.3226C27.0457 35.3226 26.7692 35.5979 26.7692 35.9355C26.7692 36.2731 27.0457 36.5484 27.3846 36.5484C27.7236 36.5484 28 36.2731 28 35.9355C28 35.5979 27.7236 35.3226 27.3846 35.3226ZM29.8462 35.3226C29.5072 35.3226 29.2308 35.5979 29.2308 35.9355C29.2308 36.2731 29.5072 36.5484 29.8462 36.5484C30.1851 36.5484 30.4615 36.2731 30.4615 35.9355C30.4615 35.5979 30.1851 35.3226 29.8462 35.3226ZM32.3077 35.3226C31.9688 35.3226 31.6923 35.5979 31.6923 35.9355C31.6923 36.2731 31.9688 36.5484 32.3077 36.5484C32.6466 36.5484 32.9231 36.2731 32.9231 35.9355C32.9231 35.5979 32.6466 35.3226 32.3077 35.3226Z" fill="black"/>
</svg>
