<svg width="36" height="36" viewBox="0 0 36 36" fill="none" xmlns="http://www.w3.org/2000/svg">
<path d="M23.7447 0.326396C23.6356 0.337251 23.5269 0.369726 23.425 0.425273C23.0143 0.647461 22.8655 1.15942 23.0877 1.57005L23.8919 3.04661C11.6013 10.0497 11.6295 18.3268 11.6548 24.4018C11.6548 24.6662 11.6575 24.9281 11.6575 25.1868C11.6575 25.6537 12.0344 26.0306 12.5013 26.0306C12.9681 26.0306 13.345 25.6537 13.345 25.1868C13.345 24.9281 13.3451 24.6635 13.3423 24.3963C13.3198 18.431 13.2919 11.0367 24.6994 4.53141L25.4953 5.9915C25.6472 6.27275 25.9365 6.4326 26.2375 6.4326C26.3725 6.4326 26.5136 6.39909 26.6401 6.32878C27.0479 6.10378 27.1968 5.59188 26.9747 5.18125L24.5697 0.763103C24.4031 0.455134 24.0719 0.293833 23.7447 0.326396ZM23.3437 10.4069C22.2524 10.4069 21.2821 10.6991 20.3428 10.9804C20.1853 11.0282 20.0306 11.076 19.8731 11.121C19.4259 11.2532 19.1697 11.7203 19.2991 12.1675C19.4284 12.6146 19.8983 12.8709 20.3455 12.7415C20.5058 12.6965 20.6663 12.6454 20.8295 12.5976C21.6901 12.3388 22.5027 12.0944 23.3437 12.0944C24.719 12.0944 25.7399 12.7102 26.4627 13.9758C28.6902 17.8796 27.371 27.3607 23.7485 33.4892C23.3829 34.1051 22.7782 34.0262 22.601 33.9869C22.2354 33.9053 21.8223 33.6184 21.766 33.0503C21.4313 29.7456 20.9249 24.7507 17.9999 24.7507C15.0749 24.7507 14.5685 29.7456 14.2338 33.0503C14.1776 33.6184 13.7645 33.9053 13.3988 33.9869C13.2188 34.0262 12.6141 34.1051 12.2513 33.4892C9.05914 28.0892 7.55996 19.7554 8.97465 15.292C9.44434 13.8126 10.1867 12.8371 11.1824 12.3899C11.607 12.1987 11.7982 11.6979 11.607 11.2732C11.4157 10.8485 10.9155 10.6573 10.4908 10.8486C9.0367 11.5039 7.98727 12.8258 7.3657 14.7833C5.79914 19.7192 7.34066 28.4971 10.8 34.35C11.3063 35.2078 12.1894 35.7024 13.1456 35.7024C13.3481 35.7024 13.5533 35.6799 13.7614 35.6321C14.9455 35.3733 15.7893 34.4255 15.9131 33.2189C16.0846 31.5427 16.6021 26.4382 17.9999 26.4382C19.3977 26.4382 19.9152 31.5426 20.0868 33.2217C20.2077 34.4254 21.0544 35.3732 22.2384 35.6348C23.4225 35.8964 24.5839 35.3906 25.1998 34.35C27.0139 31.2815 28.3865 27.2368 28.9659 23.2543C29.5847 18.9906 29.2164 15.3993 27.9283 13.1408C26.9073 11.3521 25.3237 10.4069 23.3437 10.4069Z" fill="black"/>
</svg>
