<svg width="36" height="36" viewBox="0 0 36 36" fill="none" xmlns="http://www.w3.org/2000/svg">
<path d="M22.7813 29.5312H20.8125V26.7188H22.7813C23.2482 26.7188 23.625 26.3419 23.625 25.875C23.625 25.4081 23.2482 25.0312 22.7813 25.0312H19.9688C19.5019 25.0312 19.125 25.4081 19.125 25.875V32.9062C19.125 33.5278 18.6216 34.0312 18 34.0312C17.3785 34.0312 16.875 33.5278 16.875 32.9062V25.875C16.875 25.4081 16.4982 25.0312 16.0313 25.0312H13.2188C12.7519 25.0312 12.3751 25.4081 12.3751 25.875C12.3751 26.3419 12.7519 26.7188 13.2188 26.7188H15.1875V29.5312H13.2188C12.7519 29.5312 12.3751 29.9081 12.3751 30.375C12.3751 30.8419 12.7519 31.2188 13.2188 31.2188H15.1875V32.9062C15.1875 34.4559 16.4504 35.7188 18 35.7188C19.5497 35.7188 20.8125 34.4559 20.8125 32.9062V31.2188H22.7813C23.2482 31.2188 23.625 30.8419 23.625 30.375C23.625 29.9081 23.2482 29.5312 22.7813 29.5312ZM24.2157 22.5H11.7844C10.1926 22.5 8.79755 21.4903 8.31099 19.9884C6.53067 14.49 5.88661 7.3575 8.46286 3.81375C9.47536 2.42156 10.9238 1.6875 12.6563 1.6875C13.7476 1.6875 14.7179 1.98 15.6544 2.26125C16.4729 2.50594 17.2435 2.73937 18 2.73937C18.7566 2.73937 19.5272 2.50594 20.3457 2.26125C21.2822 1.98 22.2526 1.6875 23.3438 1.6875C25.0763 1.6875 26.5247 2.42156 27.5372 3.81375C30.1135 7.35469 29.4694 14.49 27.6891 19.9884C27.2025 21.4903 25.8075 22.5 24.2157 22.5ZM12.6563 3.375C11.4525 3.375 10.5272 3.84469 9.82692 4.80656C7.92849 7.41656 7.96505 13.4438 9.91692 19.4681C10.1785 20.2725 10.9294 20.8125 11.7844 20.8125H24.2157C25.0735 20.8125 25.8244 20.2725 26.086 19.4681C28.035 13.4466 28.0716 7.41656 26.1732 4.80656C25.4729 3.84469 24.5476 3.375 23.3438 3.375C22.5 3.375 21.69 3.61969 20.8294 3.87844C19.9322 4.14844 19.0041 4.42687 18 4.42687C16.996 4.42687 16.0679 4.14844 15.1707 3.87844C14.31 3.61969 13.5001 3.375 12.6563 3.375Z" fill="black"/>
</svg>
