<svg width="36" height="36" viewBox="0 0 36 36" fill="none" xmlns="http://www.w3.org/2000/svg">
<path d="M14.0104 1.43766C13.9651 1.4367 13.9199 1.44 13.8754 1.44751C10.5795 1.49341 7.83235 2.54306 5.91316 4.38657C3.95051 6.27183 2.87988 8.95868 2.87988 12.0591C2.87988 14.3464 3.72629 16.1285 4.6602 17.798C5.5941 19.4675 6.61232 21.0521 7.16895 23.0742V23.07C7.81206 25.4633 8.26794 28.2024 8.97457 30.412C9.32788 31.5169 9.73876 32.4964 10.3316 33.2569C10.9244 34.0174 11.777 34.5591 12.7841 34.5591C13.7683 34.5591 14.6737 34.1885 15.2661 33.4734C15.8585 32.7583 16.1282 31.7728 16.1282 30.6047C16.1282 27.7348 16.7083 23.9328 17.2954 20.6499C17.3946 20.1783 17.6944 20.0381 18.0238 20.0381C18.3541 20.0381 18.6226 20.1569 18.7002 20.6245L18.7016 20.6302V20.6358C19.2889 23.853 19.8716 27.7301 19.8716 30.6047C19.8716 31.7724 20.1413 32.7583 20.7336 33.4734C21.326 34.1886 22.2313 34.5591 23.2157 34.5591C24.2253 34.5591 25.0776 34.0111 25.6696 33.2456C26.2616 32.4802 26.6721 31.4953 27.0252 30.3867C27.7312 28.1705 28.1889 25.4314 28.8308 23.0742C29.3874 21.052 30.4057 19.4675 31.3396 17.798C32.2731 16.1291 33.1191 14.3474 33.1199 12.0619C33.1527 8.96215 32.0984 6.27351 30.1443 4.38798C28.1889 2.50127 25.3643 1.43907 21.9683 1.43907C20.493 1.43907 19.1903 1.63779 18.0322 2.01563C16.8741 1.63779 15.5715 1.43907 14.0961 1.43907C14.0875 1.43907 14.0794 1.44046 14.0708 1.44048C14.0507 1.43869 14.0305 1.43775 14.0104 1.43766ZM21.9683 2.87907C25.0667 2.87907 27.4915 3.82953 29.1444 5.42438C30.7973 7.01924 31.7105 9.27905 31.6799 12.0506V12.0549V12.0591C31.6799 13.9956 30.9852 15.4809 30.0824 17.0949C29.1796 18.7088 28.0656 20.4241 27.4414 22.6917V22.6931C26.7712 25.1536 26.3092 27.8929 25.6541 29.9494C25.3266 30.9776 24.9451 31.8279 24.5305 32.3639C24.116 32.8998 23.7475 33.1191 23.2157 33.1191C22.5598 33.1191 22.153 32.9292 21.8432 32.5552C21.5334 32.1811 21.3116 31.5487 21.3116 30.6047C21.3116 27.5426 20.7134 23.6374 20.1205 20.3883C19.9353 19.2719 18.9562 18.5981 18.0238 18.5981C17.0914 18.5981 16.1148 19.251 15.8849 20.3602L15.8821 20.37L15.8807 20.3799C15.2879 23.6927 14.6882 27.5393 14.6882 30.6047C14.6882 31.5491 14.4664 32.1813 14.1566 32.5552C13.8469 32.9291 13.44 33.1191 12.7841 33.1191C12.2497 33.1191 11.8801 32.9016 11.4664 32.3709C11.0528 31.8403 10.673 30.997 10.3457 29.9733C9.69095 27.926 9.22917 25.1872 8.55973 22.6959L8.55832 22.6945V22.6917C7.93418 20.4242 6.82019 18.7087 5.91738 17.0949C5.01457 15.481 4.31988 13.996 4.31988 12.0591C4.31988 9.2857 5.24978 7.02209 6.9116 5.42579C8.5587 3.84364 10.9569 2.89855 14.016 2.88188C16.5692 3.07494 18.7979 4.23225 20.3736 6.06141C20.4347 6.13514 20.5098 6.19596 20.5946 6.24031C20.6795 6.28466 20.7723 6.31166 20.8677 6.31971C20.9631 6.32776 21.0591 6.31672 21.1502 6.28722C21.2412 6.25773 21.3255 6.21037 21.398 6.14792C21.4706 6.08547 21.53 6.00918 21.5727 5.92352C21.6154 5.83785 21.6406 5.74453 21.6468 5.64901C21.653 5.55349 21.6402 5.45769 21.6089 5.3672C21.5777 5.27672 21.5287 5.19337 21.4649 5.12204C20.8114 4.36348 20.0537 3.70875 19.2205 3.16454C20.0308 2.97956 20.9424 2.87907 21.9683 2.87907Z" fill="black"/>
</svg>
