<svg width="229" height="40" viewBox="0 0 229 40" fill="none" xmlns="http://www.w3.org/2000/svg">
<path d="M34.3006 34.3416H46.1452L16.8037 5H4.95898L34.3006 34.3416Z" fill="#8C98A4"/>
<path d="M22.8887 5L51.1734 33.2847V5H43.519V13.93L34.589 5L22.8887 5Z" fill="#8C98A4"/>
<path d="M0 5.98242V34.3416H7.65433V25.4115L16.5843 34.3416H28.3593L0 5.98242Z" fill="#8C98A4"/>
<path d="M69.6438 24.483H76.502V28.5245H64.4082V7.03125H69.6438V24.483Z" fill="#8C98A4"/>
<path d="M85.8588 28.7697C84.185 28.7697 82.6745 28.4125 81.3274 27.698C80.0006 26.9836 78.9495 25.963 78.1738 24.6363C77.4186 23.3095 77.041 21.7583 77.041 19.9824C77.041 18.2271 77.4287 16.686 78.2044 15.3593C78.9801 14.012 80.0415 12.9813 81.3886 12.2669C82.7358 11.5525 84.2462 11.1953 85.92 11.1953C87.5938 11.1953 89.1041 11.5525 90.4514 12.2669C91.7985 12.9813 92.8598 14.012 93.6355 15.3593C94.4112 16.686 94.7989 18.2271 94.7989 19.9824C94.7989 21.7378 94.401 23.2891 93.6049 24.6363C92.8293 25.963 91.7576 26.9836 90.39 27.698C89.0429 28.4125 87.5324 28.7697 85.8588 28.7697ZM85.8588 24.2383C86.8589 24.2383 87.706 23.8709 88.4 23.136C89.1143 22.4012 89.4715 21.3501 89.4715 19.9824C89.4715 18.6149 89.1246 17.5637 88.4306 16.8289C87.757 16.0941 86.9201 15.7267 85.92 15.7267C84.8994 15.7267 84.0523 16.0941 83.3788 16.8289C82.7052 17.5433 82.3684 18.5946 82.3684 19.9824C82.3684 21.3501 82.6949 22.4012 83.3481 23.136C84.0218 23.8709 84.8586 24.2383 85.8588 24.2383Z" fill="#8C98A4"/>
<path d="M103.147 11.1953C104.351 11.1953 105.403 11.4402 106.301 11.9301C107.219 12.42 107.923 13.063 108.413 13.859V11.4402H113.649V28.4941C113.649 30.0658 113.332 31.4843 112.7 32.7498C112.087 34.0357 111.138 35.0563 109.852 35.8116C108.587 36.5669 107.005 36.9445 105.107 36.9445C102.576 36.9445 100.524 36.3423 98.9526 35.138C97.3809 33.9541 96.4828 32.3417 96.2582 30.3005H101.433C101.596 30.9537 101.984 31.4639 102.596 31.8313C103.208 32.2191 103.964 32.4131 104.862 32.4131C105.944 32.4131 106.801 32.0968 107.434 31.4639C108.087 30.8516 108.413 29.8617 108.413 28.4941V26.0753C107.903 26.8713 107.199 27.5245 106.301 28.0349C105.403 28.5246 104.351 28.7697 103.147 28.7697C101.739 28.7697 100.463 28.4125 99.32 27.698C98.1769 26.9632 97.2686 25.9325 96.5951 24.6057C95.9419 23.2586 95.6152 21.7073 95.6152 19.9519C95.6152 18.1965 95.9419 16.6554 96.5951 15.3286C97.2686 14.002 98.1769 12.9813 99.32 12.2669C100.463 11.5525 101.739 11.1953 103.147 11.1953ZM108.413 19.9824C108.413 18.6762 108.046 17.6454 107.311 16.8901C106.597 16.1349 105.719 15.7572 104.678 15.7572C103.637 15.7572 102.749 16.1349 102.014 16.8901C101.3 17.6249 100.943 18.6455 100.943 19.9519C100.943 21.2583 101.3 22.2992 102.014 23.0749C102.749 23.8301 103.637 24.2076 104.678 24.2076C105.719 24.2076 106.597 23.8301 107.311 23.0749C108.046 22.3196 108.413 21.2888 108.413 19.9824Z" fill="#8C98A4"/>
<path d="M124.296 28.7697C122.623 28.7697 121.112 28.4125 119.765 27.698C118.438 26.9836 117.387 25.963 116.611 24.6363C115.856 23.3095 115.479 21.7583 115.479 19.9824C115.479 18.2271 115.866 16.686 116.642 15.3593C117.418 14.012 118.479 12.9813 119.826 12.2669C121.173 11.5525 122.684 11.1953 124.357 11.1953C126.031 11.1953 127.542 11.5525 128.889 12.2669C130.236 12.9813 131.297 14.012 132.073 15.3593C132.849 16.686 133.237 18.2271 133.237 19.9824C133.237 21.7378 132.839 23.2891 132.043 24.6363C131.267 25.963 130.195 26.9836 128.828 27.698C127.48 28.4125 125.97 28.7697 124.296 28.7697ZM124.296 24.2383C125.296 24.2383 126.144 23.8709 126.837 23.136C127.552 22.4012 127.909 21.3501 127.909 19.9824C127.909 18.6149 127.562 17.5637 126.868 16.8289C126.195 16.0941 125.358 15.7267 124.357 15.7267C123.337 15.7267 122.49 16.0941 121.816 16.8289C121.143 17.5433 120.806 18.5946 120.806 19.9824C120.806 21.3501 121.133 22.4012 121.786 23.136C122.459 23.8709 123.296 24.2383 124.296 24.2383Z" fill="#8C98A4"/>
<path d="M137.728 9.66421C136.81 9.66421 136.055 9.39884 135.463 8.86815C134.891 8.31704 134.605 7.64347 134.605 6.84741C134.605 6.03095 134.891 5.35736 135.463 4.82667C136.055 4.27556 136.81 4 137.728 4C138.627 4 139.361 4.27556 139.933 4.82667C140.525 5.35736 140.821 6.03095 140.821 6.84741C140.821 7.64347 140.525 8.31704 139.933 8.86815C139.361 9.39884 138.627 9.66421 137.728 9.66421ZM140.331 11.44V28.5244H135.095V11.44H140.331Z" fill="#8C98A4"/>
<path d="M148.442 13.859C148.953 13.063 149.657 12.42 150.555 11.9301C151.453 11.4402 152.505 11.1953 153.709 11.1953C155.118 11.1953 156.393 11.5525 157.536 12.2669C158.679 12.9813 159.577 14.002 160.23 15.3286C160.905 16.6554 161.241 18.1965 161.241 19.9519C161.241 21.7073 160.905 23.2586 160.23 24.6057C159.577 25.9325 158.679 26.9632 157.536 27.698C156.393 28.4125 155.118 28.7697 153.709 28.7697C152.525 28.7697 151.473 28.5246 150.555 28.0349C149.657 27.5449 148.953 26.9122 148.442 26.1365V36.6689H143.207V11.4402H148.442V13.859ZM155.913 19.9519C155.913 18.6455 155.546 17.6249 154.811 16.8901C154.097 16.1349 153.208 15.7572 152.147 15.7572C151.106 15.7572 150.219 16.1349 149.484 16.8901C148.77 17.6454 148.413 18.6762 148.413 19.9824C148.413 21.2888 148.77 22.3196 149.484 23.0749C150.219 23.8301 151.106 24.2076 152.147 24.2076C153.189 24.2076 154.076 23.8301 154.811 23.0749C155.546 22.2992 155.913 21.2583 155.913 19.9519Z" fill="#8C98A4"/>
<path d="M170.019 28.7697C168.528 28.7697 167.202 28.5146 166.039 28.0042C164.875 27.494 163.956 26.7999 163.284 25.9223C162.61 25.0242 162.232 24.0239 162.15 22.9217H167.325C167.386 23.5137 167.662 23.9934 168.152 24.3608C168.641 24.7282 169.244 24.9119 169.958 24.9119C170.611 24.9119 171.11 24.7894 171.459 24.5445C171.826 24.2791 172.01 23.9423 172.01 23.5341C172.01 23.0442 171.753 22.687 171.244 22.4624C170.733 22.2175 169.906 21.9522 168.764 21.6664C167.539 21.3806 166.518 21.0846 165.702 20.7786C164.885 20.4519 164.182 19.9519 163.589 19.2783C162.998 18.5843 162.702 17.6556 162.702 16.492C162.702 15.5123 162.967 14.6245 163.497 13.8283C164.048 13.0119 164.845 12.369 165.885 11.8995C166.947 11.43 168.202 11.1953 169.651 11.1953C171.795 11.1953 173.479 11.726 174.703 12.7874C175.949 13.8488 176.663 15.2572 176.847 17.0126H172.01C171.927 16.4206 171.662 15.9511 171.213 15.6042C170.784 15.2572 170.213 15.0837 169.499 15.0837C168.887 15.0837 168.417 15.2061 168.09 15.4511C167.764 15.6756 167.601 15.992 167.601 16.4002C167.601 16.8901 167.856 17.2575 168.365 17.5024C168.896 17.7474 169.713 17.9923 170.816 18.2372C172.081 18.5639 173.112 18.8904 173.907 19.2171C174.703 19.5231 175.398 20.0335 175.989 20.7479C176.602 21.442 176.918 22.3808 176.939 23.5646C176.939 24.5649 176.653 25.463 176.081 26.259C175.53 27.0347 174.724 27.647 173.663 28.096C172.622 28.5451 171.407 28.7697 170.019 28.7697Z" fill="#8C98A4"/>
<path d="M196.093 11.4395V28.5238H190.857V26.197C190.327 26.9523 189.602 27.5646 188.684 28.0341C187.786 28.4831 186.786 28.7075 185.684 28.7075C184.377 28.7075 183.223 28.4219 182.223 27.8504C181.223 27.2584 180.448 26.4112 179.897 25.309C179.346 24.2068 179.07 22.9108 179.07 21.4207V11.4395H184.275V20.7164C184.275 21.8595 184.571 22.7474 185.162 23.3801C185.755 24.013 186.55 24.3293 187.55 24.3293C188.571 24.3293 189.377 24.013 189.97 23.3801C190.562 22.7474 190.857 21.8595 190.857 20.7164V11.4395H196.093Z" fill="#8C98A4"/>
<path d="M220.734 11.2559C222.857 11.2559 224.541 11.8988 225.786 13.1847C227.053 14.4706 227.685 16.2567 227.685 18.5428V28.524H222.479V19.2469C222.479 18.1447 222.184 17.2977 221.592 16.7057C221.02 16.0934 220.224 15.7872 219.204 15.7872C218.183 15.7872 217.377 16.0934 216.784 16.7057C216.214 17.2977 215.928 18.1447 215.928 19.2469V28.524H210.722V19.2469C210.722 18.1447 210.427 17.2977 209.835 16.7057C209.263 16.0934 208.467 15.7872 207.447 15.7872C206.426 15.7872 205.62 16.0934 205.027 16.7057C204.457 17.2977 204.171 18.1447 204.171 19.2469V28.524H198.936V11.4396H204.171V13.5828C204.701 12.8684 205.395 12.3071 206.253 11.8988C207.11 11.4702 208.079 11.2559 209.161 11.2559C210.447 11.2559 211.59 11.5314 212.59 12.0825C213.611 12.6336 214.407 13.4195 214.979 14.4401C215.571 13.5011 216.377 12.7357 217.398 12.1438C218.418 11.5518 219.531 11.2559 220.734 11.2559Z" fill="#8C98A4"/>
</svg>
