<svg width="36" height="36" viewBox="0 0 36 36" fill="none" xmlns="http://www.w3.org/2000/svg">
<path d="M14.4664 3.06641C11.3981 3.06641 8.84198 4.03206 7.06531 5.74109C5.28865 7.45013 4.32031 9.88124 4.32031 12.6697C4.32031 14.7426 5.08417 16.3593 5.91922 17.8587C6.75427 19.3582 7.65766 20.7671 8.14953 22.557V22.5584C8.73552 24.6894 9.14849 27.149 9.78781 29.1453C10.1075 30.1434 10.4786 31.0331 11.0211 31.73C11.5636 32.4269 12.3551 32.9323 13.2866 32.9323C14.1946 32.9323 15.0163 32.5736 15.5295 31.9156C16.0427 31.2576 16.2693 30.3956 16.3606 29.3675C16.6108 26.5517 16.8789 25.4368 17.4378 22.5022C17.4873 22.2425 17.5982 22.1474 17.757 22.0803C17.8365 22.0468 17.9306 22.032 18.0228 22.0353C18.098 23.2789 18.4881 24.4371 19.1183 25.4328C19.3355 26.6376 19.4909 27.702 19.6386 29.3675C19.7299 30.3956 19.9565 31.2576 20.4697 31.9156C20.9829 32.5736 21.8047 32.9323 22.7127 32.9323C23.7613 32.9323 24.6126 32.2958 25.175 31.4572C25.6839 30.6982 26.0374 29.7474 26.345 28.6995C27.6231 28.4936 28.7915 27.9564 29.7523 27.1695L34.0512 31.4684L35.0694 30.4503L30.7705 26.1514C31.7876 24.9095 32.4003 23.3249 32.4003 21.5994C32.4003 19.7824 31.7175 18.1248 30.6017 16.8561C31.2046 15.6339 31.6803 14.2914 31.6803 12.6697C31.6803 12.1886 31.6522 11.7185 31.5959 11.2606C31.0001 6.41368 27.1411 3.06641 21.5342 3.06641C20.2306 3.06641 19.0797 3.27295 18.0355 3.60078C17.9822 3.58612 17.9275 3.57762 17.8723 3.57547C16.8522 3.26402 15.7324 3.06641 14.4664 3.06641ZM14.4664 4.50641C15.6282 4.50641 16.642 4.66666 17.525 4.93953C17.5429 4.94826 17.5612 4.95623 17.5798 4.96344C18.7639 5.45827 19.8072 6.21192 20.6314 7.14734C20.6931 7.22093 20.769 7.28143 20.8544 7.32527C20.9399 7.36912 21.0332 7.39542 21.129 7.40263C21.2248 7.40985 21.3211 7.39783 21.4121 7.36728C21.5032 7.33673 21.5872 7.28827 21.6593 7.22476C21.7313 7.16124 21.7899 7.08396 21.8317 6.99745C21.8734 6.91094 21.8974 6.81695 21.9023 6.72102C21.9071 6.6251 21.8927 6.52917 21.86 6.43888C21.8272 6.3486 21.7767 6.26578 21.7114 6.19531C21.1865 5.59955 20.582 5.07487 19.9227 4.62031C20.4273 4.54962 20.9614 4.50641 21.5342 4.50641C26.5949 4.50641 29.6499 7.22863 30.1672 11.4364C30.216 11.8339 30.2403 12.245 30.2403 12.6697C30.2403 13.8617 29.9401 14.8543 29.4936 15.8352C28.2928 14.9381 26.8099 14.3994 25.2003 14.3994C21.5746 14.3994 18.5715 17.1011 18.0791 20.5939C17.7801 20.5824 17.4796 20.6351 17.1973 20.7542C16.6373 20.9906 16.1572 21.5285 16.0231 22.2322V22.2336C15.4675 25.1511 15.1815 26.3673 14.9262 29.2409C14.8483 30.1186 14.644 30.7101 14.3947 31.0297C14.1454 31.3493 13.8726 31.4923 13.2866 31.4923C12.8284 31.4923 12.521 31.3126 12.1573 30.8455C11.7936 30.3782 11.4528 29.6242 11.1589 28.7066C10.5712 26.8714 10.1518 24.4097 9.5375 22.1759C8.97817 20.1405 7.98008 18.6016 7.17641 17.1584C6.37273 15.7153 5.76031 14.3948 5.76031 12.6697C5.76031 10.2093 6.58709 8.19935 8.06375 6.77891C9.5404 5.35846 11.6969 4.50641 14.4664 4.50641ZM25.2003 15.8394C28.39 15.8394 30.9603 18.4097 30.9603 21.5994C30.9603 24.7891 28.39 27.3594 25.2003 27.3594C22.0106 27.3594 19.4403 24.7891 19.4403 21.5994C19.4403 18.4097 22.0106 15.8394 25.2003 15.8394ZM20.862 27.3312C21.9742 28.1755 23.3358 28.7008 24.8164 28.7797C24.5638 29.5497 24.2845 30.2011 23.9797 30.6556C23.5747 31.2595 23.2285 31.4923 22.7127 31.4923C22.1267 31.4923 21.8552 31.3493 21.6059 31.0297C21.3567 30.7101 21.1509 30.1186 21.073 29.2409C21.0074 28.501 20.936 27.9102 20.862 27.3312Z" fill="black"/>
</svg>
