<svg width="187" height="40" viewBox="0 0 187 40" fill="none" xmlns="http://www.w3.org/2000/svg">
<path d="M29.8908 17.827C29.3854 18.3354 28.9985 18.949 28.7574 19.624C28.5164 20.299 28.4272 21.0189 28.4961 21.7324L28.4721 21.7084C28.543 22.5482 28.4297 23.3933 28.1402 24.1849C27.8508 24.9764 27.3921 25.6952 26.7962 26.2912C26.2002 26.887 25.4814 27.3458 24.6898 27.6352C23.8984 27.9246 23.0532 28.038 22.2134 27.967L22.2374 27.991C21.2329 27.8976 20.224 28.1161 19.3481 28.617C18.4724 29.118 17.7724 29.8768 17.3437 30.7901C16.915 31.7034 16.7784 32.7266 16.9525 33.7205C17.1268 34.7142 17.6032 35.6301 18.3169 36.3432C19.0306 37.0562 19.9469 37.5318 20.9408 37.705C21.9348 37.8784 22.9578 37.7408 23.8708 37.3113C24.7837 36.8817 25.5418 36.1812 26.042 35.3049C26.5421 34.4286 26.7598 33.4196 26.6654 32.415L26.6908 32.439C26.6198 31.5993 26.733 30.7541 27.0225 29.9625C27.312 29.171 27.7708 28.4522 28.3666 27.8562C28.9626 27.2604 29.6814 26.8016 30.4729 26.5122C31.2645 26.2228 32.1096 26.1094 32.9494 26.1804L32.9241 26.1564C33.7446 26.2301 34.5706 26.0956 35.3254 25.7652C36.0801 25.4348 36.7393 24.9192 37.2417 24.2662C37.7441 23.6133 38.0737 22.844 38.1996 22.0298C38.3256 21.2156 38.244 20.3828 37.9624 19.6084C37.6808 18.8341 37.2082 18.1434 36.5886 17.6004C35.969 17.0573 35.2224 16.6794 34.4178 16.5018C33.6133 16.3242 32.7769 16.3525 31.9862 16.5841C31.1956 16.8158 30.4762 17.2433 29.8948 17.827H29.8908Z" fill="#8C98A4"/>
<path d="M20.0569 24.8483L20.0315 24.8243C20.7453 24.8962 21.4661 24.8086 22.1419 24.5678C22.8177 24.327 23.4315 23.9391 23.939 23.4321C24.4463 22.925 24.8349 22.3114 25.0761 21.6358C25.3174 20.9602 25.4055 20.2395 25.3342 19.5257L25.3595 19.5497C25.2886 18.7098 25.4019 17.8647 25.6913 17.0731C25.9807 16.2817 26.4395 15.5629 27.0354 14.9669C27.6314 14.371 28.3502 13.9122 29.1417 13.6229C29.9333 13.3333 30.7783 13.2201 31.6182 13.291L31.5929 13.267C32.5975 13.3614 33.6067 13.1435 34.483 12.6431C35.3594 12.1428 36.0599 11.3843 36.4893 10.4711C36.9186 9.55797 37.0558 8.5346 36.8822 7.54059C36.7086 6.54657 36.2326 5.63033 35.519 4.91681C34.8055 4.20331 33.8893 3.72725 32.8953 3.55363C31.9013 3.37999 30.8779 3.5172 29.9647 3.94656C29.0515 4.37591 28.2931 5.07651 27.7927 5.95279C27.2923 6.82905 27.0745 7.83835 27.1689 8.84299L27.1449 8.81765C27.2159 9.65751 27.1029 10.5028 26.8135 11.2944C26.5242 12.086 26.0654 12.8049 25.4695 13.401C24.8735 13.9969 24.1546 14.4557 23.363 14.745C22.5713 15.0343 21.7261 15.1474 20.8862 15.0763L20.9102 15.1017C20.1965 15.0298 19.4755 15.1174 18.7998 15.3582C18.1241 15.5989 17.5102 15.9869 17.0027 16.4939C16.4953 17.001 16.1069 17.6146 15.8655 18.2902C15.6243 18.9658 15.5362 19.6865 15.6075 20.4003L15.5835 20.3763C15.6542 21.2161 15.5407 22.0611 15.2513 22.8526C14.9617 23.6439 14.503 24.3627 13.9071 24.9586C13.3112 25.5545 12.5925 26.0131 11.8011 26.3027C11.0097 26.5922 10.1646 26.7057 9.32486 26.635L9.34886 26.659C8.34422 26.5646 7.33492 26.7825 6.45864 27.2829C5.58238 27.7833 4.88178 28.5417 4.45243 29.4549C4.02307 30.3681 3.88584 31.3914 4.05948 32.3854C4.23312 33.3794 4.70918 34.2957 5.42268 35.0091C6.1362 35.7227 7.05244 36.1987 8.04646 36.3723C9.04047 36.5459 10.0638 36.4087 10.977 35.9794C11.8902 35.5501 12.6486 34.8495 13.149 33.9733C13.6494 33.0969 13.8673 32.0877 13.7729 31.083L13.7982 31.107C13.7273 30.2671 13.8406 29.4221 14.1301 28.6305C14.4194 27.839 14.8782 27.1202 15.4741 26.5242C16.0701 25.9283 16.7889 25.4695 17.5803 25.1802C18.3719 24.8907 19.217 24.7774 20.0569 24.8483Z" fill="#8C98A4"/>
<path d="M11.1196 22.1706C11.625 21.6623 12.0119 21.0487 12.2528 20.3737C12.4936 19.6986 12.5825 18.9786 12.513 18.2653L12.5383 18.2893C12.4674 17.4493 12.5806 16.6038 12.8702 15.8121C13.1599 15.0203 13.6188 14.3014 14.2151 13.7054C14.8114 13.1094 15.5304 12.6508 16.3223 12.3615C17.1142 12.0722 17.9596 11.9593 18.7996 12.0306L18.7743 12.0066C19.7786 12.1007 20.7875 11.8827 21.6634 11.3824C22.5392 10.8821 23.2394 10.1238 23.6686 9.21092C24.0976 8.29804 24.2347 7.27504 24.0611 6.2814C23.8875 5.28776 23.4115 4.37187 22.6983 3.65862C21.9851 2.94536 21.0691 2.46947 20.0755 2.29584C19.0819 2.1222 18.0588 2.2593 17.146 2.68839C16.2331 3.11748 15.4748 3.81771 14.9746 4.69358C14.4742 5.56944 14.2562 6.57832 14.3503 7.58262L14.3263 7.55862C14.3972 8.39842 14.2839 9.24358 13.9944 10.0351C13.705 10.8266 13.2463 11.5454 12.6504 12.1414C12.0544 12.7373 11.3356 13.196 10.5441 13.4854C9.75258 13.7749 8.90743 13.8882 8.06763 13.8173L8.09163 13.8413C7.27106 13.7677 6.44518 13.9025 5.69054 14.233C4.9359 14.5636 4.2769 15.0793 3.77462 15.7323C3.27234 16.3853 2.94303 17.1546 2.81719 17.9688C2.69136 18.783 2.77308 19.6158 3.05478 20.3899C3.33647 21.1642 3.80904 21.8547 4.42868 22.3977C5.04832 22.9408 5.79499 23.3185 6.5995 23.4961C7.40399 23.6736 8.2403 23.6451 9.03092 23.4135C9.82154 23.1818 10.5409 22.7544 11.1223 22.1706H11.1196Z" fill="#8C98A4"/>
<path d="M52.4219 8.87305H56.3819V28.1437H52.4219V8.87305Z" fill="#8C98A4"/>
<path d="M58.6252 21.5455C58.6197 20.1607 59.0253 18.8052 59.7907 17.6511C60.556 16.4969 61.6467 15.5959 62.9245 15.0621C64.2024 14.5283 65.6099 14.3857 66.9688 14.6525C68.3277 14.9193 69.5769 15.5833 70.5581 16.5607C71.5393 17.5379 72.2084 18.7844 72.4807 20.1423C72.7529 21.5001 72.616 22.9083 72.0873 24.1883C71.5587 25.4681 70.662 26.5625 69.5109 27.3324C68.3597 28.1024 67.0061 28.5135 65.6212 28.5135C64.702 28.524 63.7899 28.3511 62.9381 28.0049C62.0864 27.6588 61.3123 27.1464 60.6609 26.4977C60.0095 25.8489 59.494 25.0768 59.1445 24.2265C58.7949 23.3763 58.6184 22.4648 58.6252 21.5455ZM68.6572 21.5455C68.6407 20.9485 68.4485 20.3697 68.1049 19.8813C67.7612 19.3931 67.2812 19.0168 66.7249 18.7999C66.1685 18.5828 65.5607 18.5345 64.9771 18.6612C64.3935 18.7879 63.8601 19.0836 63.4437 19.5117C63.0275 19.9397 62.7464 20.4811 62.6361 21.068C62.5257 21.6548 62.5907 22.2612 62.8231 22.8113C63.0555 23.3615 63.4448 23.8308 63.9424 24.1608C64.4401 24.4908 65.0241 24.6668 65.6212 24.6668C66.0301 24.6777 66.4369 24.6037 66.816 24.4496C67.1949 24.2955 67.5379 24.0645 67.8231 23.7713C68.1083 23.478 68.3297 23.1288 68.4732 22.7457C68.6168 22.3627 68.6795 21.954 68.6572 21.5455Z" fill="#8C98A4"/>
<path d="M88.3992 14.9457V27.4791C88.3992 31.9137 84.9406 33.7884 81.4299 33.7884C80.1939 33.8809 78.9562 33.6312 77.8526 33.0668C76.7491 32.5023 75.8223 31.6448 75.1739 30.5884L78.5526 28.6351C78.8251 29.1857 79.2594 29.64 79.7971 29.9372C80.335 30.2343 80.9507 30.3601 81.5619 30.2977C81.9526 30.3519 82.3504 30.3175 82.726 30.1971C83.1015 30.0767 83.4452 29.8733 83.7316 29.6023C84.018 29.3311 84.2398 28.9991 84.3806 28.6305C84.5212 28.2621 84.5772 27.8668 84.5446 27.4737V26.2671C84.0808 26.8344 83.4907 27.2852 82.8212 27.5832C82.1518 27.8812 81.4219 28.0181 80.6899 27.9831C78.9483 27.9281 77.2964 27.1977 76.0839 25.9463C74.8714 24.6949 74.1934 23.0208 74.1934 21.2784C74.1934 19.536 74.8714 17.8619 76.0839 16.6105C77.2964 15.3591 78.9483 14.6287 80.6899 14.5737C81.4219 14.5387 82.1518 14.6756 82.8212 14.9736C83.4907 15.2716 84.0808 15.7224 84.5446 16.2897V14.9431L88.3992 14.9457ZM84.5459 21.2804C84.5726 20.6423 84.4075 20.0107 84.0722 19.4671C83.7368 18.9233 83.2464 18.4925 82.6642 18.23C82.0819 17.9673 81.4344 17.8851 80.805 17.9936C80.1755 18.1021 79.593 18.3965 79.1322 18.8391C78.6715 19.2815 78.3538 19.8516 78.2198 20.4761C78.0859 21.1007 78.1419 21.7511 78.3808 22.3435C78.6196 22.9359 79.0303 23.4433 79.5599 23.8004C80.0895 24.1575 80.7139 24.3479 81.3526 24.3471C81.7687 24.3761 82.1862 24.3177 82.5783 24.1756C82.9704 24.0335 83.3284 23.8107 83.6292 23.5219C83.93 23.2329 84.1671 22.8843 84.325 22.4981C84.4828 22.1121 84.5582 21.6973 84.5459 21.2804Z" fill="#8C98A4"/>
<path d="M90.6428 21.5455C90.6373 20.1607 91.0428 18.8052 91.8082 17.6511C92.5736 16.4969 93.6642 15.5959 94.9421 15.0621C96.22 14.5283 97.6274 14.3857 98.9864 14.6525C100.345 14.9193 101.595 15.5833 102.576 16.5607C103.557 17.5379 104.226 18.7844 104.498 20.1423C104.77 21.5001 104.634 22.9083 104.105 24.1883C103.576 25.4681 102.68 26.5625 101.528 27.3324C100.377 28.1024 99.0237 28.5135 97.6388 28.5135C96.7196 28.524 95.8073 28.3511 94.9557 28.0049C94.104 27.6588 93.3298 27.1464 92.6785 26.4977C92.027 25.8489 91.5116 25.0768 91.1621 24.2265C90.8125 23.3763 90.636 22.4648 90.6428 21.5455ZM100.675 21.5455C100.658 20.9485 100.466 20.3697 100.122 19.8813C99.7788 19.3931 99.2988 19.0168 98.7425 18.7999C98.1861 18.5828 97.5781 18.5345 96.9946 18.6612C96.411 18.7879 95.8777 19.0836 95.4613 19.5117C95.045 19.9397 94.764 20.4811 94.6536 21.068C94.5432 21.6548 94.6082 22.2612 94.8406 22.8113C95.073 23.3615 95.4624 23.8308 95.96 24.1608C96.4577 24.4908 97.0416 24.6668 97.6388 24.6668C98.0477 24.6777 98.4545 24.6037 98.8334 24.4496C99.2125 24.2955 99.5554 24.0645 99.8406 23.7713C100.126 23.478 100.347 23.1288 100.491 22.7457C100.634 22.3627 100.697 21.954 100.675 21.5455Z" fill="#8C98A4"/>
<path d="M106.48 11.4073C106.48 10.9373 106.62 10.4779 106.881 10.0872C107.142 9.69649 107.513 9.39195 107.947 9.21212C108.381 9.03228 108.859 8.98523 109.32 9.07691C109.781 9.16859 110.204 9.39488 110.537 9.72717C110.869 10.0595 111.095 10.4828 111.187 10.9437C111.278 11.4046 111.231 11.8823 111.052 12.3165C110.872 12.7507 110.567 13.1217 110.176 13.3829C109.786 13.6439 109.326 13.7833 108.856 13.7833C108.228 13.777 107.628 13.5247 107.183 13.0804C106.739 12.6362 106.487 12.0355 106.48 11.4073ZM106.88 14.9446H110.842V28.1446H106.875L106.88 14.9446Z" fill="#8C98A4"/>
<path d="M127.942 21.545C127.987 22.4174 127.86 23.2902 127.567 24.1133C127.275 24.9364 126.822 25.6934 126.236 26.341C125.65 26.9885 124.941 27.5138 124.151 27.8866C123.361 28.2593 122.505 28.4722 121.632 28.513C120.898 28.553 120.165 28.4293 119.485 28.1508C118.805 27.8721 118.195 27.4457 117.7 26.9024V33.4237H113.74V14.945H117.7V16.185C118.195 15.6421 118.805 15.216 119.485 14.9377C120.165 14.6593 120.898 14.5357 121.632 14.5757C122.505 14.6164 123.361 14.8292 124.151 15.202C124.942 15.5748 125.65 16.1001 126.237 16.7478C126.823 17.3956 127.276 18.1529 127.568 18.9762C127.861 19.7994 127.988 20.6725 127.942 21.545ZM123.982 21.545C123.966 20.9273 123.769 20.3278 123.414 19.8216C123.06 19.3154 122.564 18.925 121.989 18.6994C121.413 18.4737 120.784 18.4226 120.18 18.5528C119.576 18.6828 119.024 18.9881 118.592 19.4305C118.161 19.873 117.869 20.4328 117.755 21.0401C117.64 21.6473 117.707 22.2748 117.947 22.8442C118.187 23.4137 118.59 23.8996 119.105 24.2413C119.619 24.5829 120.224 24.7652 120.842 24.765C121.266 24.784 121.689 24.7129 122.084 24.5566C122.479 24.4005 122.837 24.1625 123.133 23.8585C123.429 23.5544 123.658 23.1912 123.805 22.7925C123.951 22.3938 124.011 21.9686 123.982 21.545Z" fill="#8C98A4"/>
<path d="M140.161 24.1832C140.161 27.2192 137.523 28.5125 134.672 28.5125C133.52 28.6168 132.364 28.3733 131.352 27.8132C130.34 27.2532 129.519 26.4025 128.996 25.3712L132.427 23.4178C132.566 23.8945 132.864 24.3093 133.271 24.5926C133.679 24.8761 134.172 25.0112 134.667 24.9752C135.616 24.9752 136.092 24.6845 136.092 24.1578C136.092 22.7045 129.597 23.4712 129.597 18.9045C129.597 16.0258 132.027 14.5752 134.772 14.5752C135.804 14.5425 136.825 14.7873 137.731 15.284C138.636 15.7808 139.392 16.5112 139.919 17.3992L136.54 19.2205C136.392 18.8748 136.145 18.5802 135.831 18.3737C135.516 18.1672 135.148 18.0578 134.772 18.0592C134.085 18.0592 133.663 18.3258 133.663 18.7978C133.668 20.3032 140.161 19.2992 140.161 24.1832Z" fill="#8C98A4"/>
<path d="M154.628 14.9453V28.1453H150.668V26.904C150.21 27.4517 149.63 27.8833 148.974 28.1633C148.318 28.4433 147.606 28.5637 146.894 28.5146C144.228 28.5146 141.961 26.6146 141.961 23.048V14.9453H145.921V22.468C145.888 22.7824 145.924 23.1002 146.026 23.3993C146.128 23.6985 146.294 23.9718 146.513 24.2002C146.732 24.4286 146.997 24.6066 147.292 24.722C147.585 24.8373 147.901 24.8872 148.217 24.868C149.669 24.868 150.672 24.024 150.672 22.1493V14.9493L154.628 14.9453Z" fill="#8C98A4"/>
<path d="M177.334 20.041V28.145H173.374V20.3836C173.374 19.0636 172.74 18.2196 171.474 18.2196C170.154 18.2196 169.414 19.1436 169.414 20.701V28.145H165.455V20.3836C165.455 19.0636 164.822 18.2196 163.554 18.2196C162.234 18.2196 161.495 19.1436 161.495 20.701V28.145H157.535V14.945H161.495V16.1583C161.906 15.62 162.444 15.1931 163.062 14.9167C163.68 14.6402 164.358 14.523 165.032 14.5756C165.71 14.5424 166.384 14.6855 166.991 14.9907C167.596 15.2958 168.112 15.7528 168.49 16.317C168.928 15.7267 169.51 15.2574 170.179 14.9528C170.848 14.6483 171.584 14.5186 172.318 14.5756C175.348 14.577 177.334 16.741 177.334 20.041Z" fill="#8C98A4"/>
<path d="M180.683 14.8637C182.305 14.8637 183.621 13.5479 183.621 11.925C183.621 10.302 182.305 8.98633 180.683 8.98633C179.06 8.98633 177.744 10.302 177.744 11.925C177.744 13.5479 179.06 14.8637 180.683 14.8637Z" fill="#8C98A4"/>
</svg>
