<svg width="202" height="40" viewBox="0 0 202 40" fill="none" xmlns="http://www.w3.org/2000/svg">
<g clip-path="url(#clip0_1287_347)">
<path fill-rule="evenodd" clip-rule="evenodd" d="M25.5557 11.6853C23.9112 10.5865 21.9778 10 20 10V0C23.9556 0 27.8224 1.17298 31.1114 3.37061C34.4004 5.56823 36.9638 8.69181 38.4776 12.3463C39.9913 16.0008 40.3874 20.0222 39.6157 23.9018C38.844 27.7814 36.9392 31.3451 34.1421 34.1421C31.3451 36.9392 27.7814 38.844 23.9018 39.6157C20.0222 40.3874 16.0008 39.9913 12.3463 38.4776C8.6918 36.9638 5.56823 34.4004 3.37061 31.1114C1.17298 27.8224 0 23.9556 0 20H10C10 21.9778 10.5865 23.9112 11.6853 25.5557C12.7841 27.2002 14.3459 28.4819 16.1732 29.2388C18.0004 29.9957 20.0111 30.1937 21.9509 29.8078C23.8907 29.422 25.6725 28.4696 27.0711 27.0711C28.4696 25.6725 29.422 23.8907 29.8078 21.9509C30.1937 20.0111 29.9957 18.0004 29.2388 16.1732C28.4819 14.3459 27.2002 12.7841 25.5557 11.6853Z" fill="#8C98A4"/>
<path fill-rule="evenodd" clip-rule="evenodd" d="M9.99999 5.28493e-06C9.99999 1.31322 9.74134 2.61358 9.23879 3.82684C8.73624 5.04009 7.99965 6.14248 7.07106 7.07107C6.14248 7.99966 5.04009 8.73625 3.82683 9.2388C2.61357 9.74134 1.31321 10 4.3711e-07 10L0 20C2.62643 20 5.22715 19.4827 7.65367 18.4776C10.0802 17.4725 12.285 15.9993 14.1421 14.1421C15.9993 12.285 17.4725 10.0802 18.4776 7.65367C19.4827 5.22715 20 2.62643 20 0L9.99999 5.28493e-06Z" fill="#8C98A4"/>
<path d="M125.618 14.4531H120.766V29.8654H125.618V14.4531Z" fill="#8C98A4"/>
<path d="M121.306 11.5666C121.813 12.074 122.447 12.3277 123.208 12.3277C123.969 12.3277 124.593 12.074 125.079 11.5666C125.566 11.0381 125.809 10.4038 125.809 9.66385C125.809 8.90277 125.566 8.26849 125.079 7.76111C124.593 7.25369 123.969 7 123.208 7C122.447 7 121.813 7.25369 121.306 7.76111C120.819 8.26849 120.576 8.90277 120.576 9.66385C120.576 10.4038 120.819 11.0381 121.306 11.5666Z" fill="#8C98A4"/>
<path d="M51.1562 29.8657V7.47656H56.1352V25.4894H66.0613V29.8657H51.1562Z" fill="#8C98A4"/>
<path fill-rule="evenodd" clip-rule="evenodd" d="M75.0273 30.2135C73.4417 30.2135 72.0041 29.8647 70.7144 29.167C69.4459 28.4482 68.4417 27.4757 67.7017 26.2494C66.9618 25.0232 66.5918 23.649 66.5918 22.1268C66.5918 20.6046 66.9618 19.241 67.7017 18.0359C68.4417 16.8308 69.4459 15.8794 70.7144 15.1818C71.9829 14.4629 73.4206 14.1035 75.0273 14.1035C76.6341 14.1035 78.0717 14.4524 79.3402 15.15C80.6087 15.8477 81.613 16.8097 82.3529 18.0359C83.0929 19.241 83.4629 20.6046 83.4629 22.1268C83.4629 23.649 83.0929 25.0232 82.3529 26.2494C81.613 27.4757 80.6087 28.4482 79.3402 29.167C78.0717 29.8647 76.6341 30.2135 75.0273 30.2135ZM75.0273 25.8055C75.725 25.8055 76.3381 25.6575 76.8667 25.3615C77.3952 25.0444 77.7969 24.611 78.0717 24.0613C78.3677 23.4905 78.5157 22.8456 78.5157 22.1268C78.5157 21.408 78.3677 20.7843 78.0717 20.2558C77.7757 19.7061 77.3635 19.2833 76.8349 18.9873C76.3275 18.6701 75.725 18.5116 75.0273 18.5116C74.3508 18.5116 73.7483 18.6701 73.2197 18.9873C72.6912 19.2833 72.2789 19.7061 71.9829 20.2558C71.6869 20.8055 71.539 21.4397 71.539 22.1585C71.539 22.8562 71.6869 23.4905 71.9829 24.0613C72.2789 24.611 72.6912 25.0444 73.2197 25.3615C73.7483 25.6575 74.3508 25.8055 75.0273 25.8055Z" fill="#8C98A4"/>
<path fill-rule="evenodd" clip-rule="evenodd" d="M87.3066 35.8916C88.5962 36.4835 90.0867 36.7795 91.7781 36.7795C93.4271 36.7795 94.8965 36.4518 96.1861 35.7964C97.4758 35.141 98.4905 34.232 99.2305 33.0692C99.9704 31.9064 100.341 30.5322 100.341 28.9465V14.4539H95.5835V15.4894C95.2297 15.1916 94.8279 14.9416 94.3785 14.7393C93.5539 14.3376 92.6131 14.1367 91.5561 14.1367C90.1396 14.1367 88.8816 14.475 87.7823 15.1515C86.6828 15.8069 85.8161 16.716 85.1818 17.8788C84.5475 19.0205 84.2305 20.3101 84.2305 21.7478C84.2305 23.1643 84.5475 24.4539 85.1818 25.6167C85.8161 26.7795 86.6828 27.6992 87.7823 28.3757C88.8816 29.0522 90.1396 29.3905 91.5561 29.3905C92.592 29.3905 93.5328 29.1897 94.3785 28.788C94.7881 28.5934 95.1581 28.3641 95.4884 28.1V29.0734C95.4884 30.1516 95.1396 30.9867 94.4419 31.5787C93.7654 32.1707 92.8246 32.4666 91.6195 32.4666C90.647 32.4666 89.8119 32.2975 89.1142 31.9592C88.4377 31.621 87.8245 31.1241 87.2748 30.4687L84.2939 33.4497C85.0338 34.5068 86.0381 35.3208 87.3066 35.8916ZM94.2199 24.6336C93.7336 24.9296 93.1523 25.0776 92.4757 25.0776C91.7992 25.0776 91.2072 24.9296 90.6998 24.6336C90.2135 24.3376 89.833 23.9359 89.5582 23.4285C89.2833 22.9 89.1459 22.3397 89.1459 21.7478C89.1459 21.1135 89.2833 20.5427 89.5582 20.0353C89.833 19.5279 90.2241 19.1262 90.7315 18.8302C91.2389 18.5342 91.8203 18.3862 92.4757 18.3862C93.1523 18.3862 93.7336 18.5342 94.2199 18.8302C94.7273 19.1262 95.1078 19.5279 95.3616 20.0353C95.6364 20.5427 95.7738 21.1135 95.7738 21.7478C95.7738 22.382 95.6364 22.9528 95.3616 23.4602C95.1078 23.9465 94.7273 24.3376 94.2199 24.6336Z" fill="#8C98A4"/>
<path fill-rule="evenodd" clip-rule="evenodd" d="M110.551 30.2135C108.965 30.2135 107.527 29.8647 106.238 29.167C104.969 28.4482 103.965 27.4757 103.225 26.2494C102.485 25.0232 102.115 23.649 102.115 22.1268C102.115 20.6046 102.485 19.241 103.225 18.0359C103.965 16.8308 104.969 15.8794 106.238 15.1818C107.506 14.4629 108.944 14.1035 110.551 14.1035C112.157 14.1035 113.595 14.4524 114.863 15.15C116.132 15.8477 117.136 16.8097 117.876 18.0359C118.616 19.241 118.986 20.6046 118.986 22.1268C118.986 23.649 118.616 25.0232 117.876 26.2494C117.136 27.4757 116.132 28.4482 114.863 29.167C113.595 29.8647 112.157 30.2135 110.551 30.2135ZM110.551 25.8055C111.248 25.8055 111.861 25.6575 112.39 25.3615C112.918 25.0444 113.32 24.611 113.595 24.0613C113.891 23.4905 114.039 22.8456 114.039 22.1268C114.039 21.408 113.891 20.7843 113.595 20.2558C113.299 19.7061 112.887 19.2833 112.358 18.9873C111.851 18.6701 111.248 18.5116 110.551 18.5116C109.874 18.5116 109.271 18.6701 108.743 18.9873C108.214 19.2833 107.802 19.7061 107.506 20.2558C107.21 20.8055 107.062 21.4397 107.062 22.1585C107.062 22.8562 107.21 23.4905 107.506 24.0613C107.802 24.611 108.214 25.0444 108.743 25.3615C109.271 25.6575 109.874 25.8055 110.551 25.8055Z" fill="#8C98A4"/>
<path fill-rule="evenodd" clip-rule="evenodd" d="M137.281 30.1814C136.246 30.1814 135.294 29.9806 134.427 29.5789C133.971 29.3675 133.559 29.1151 133.191 28.8217V36.3654H128.402V14.452H133.254V15.5157C133.606 15.2278 133.997 14.9789 134.427 14.7691C135.294 14.3462 136.246 14.1348 137.281 14.1348C138.74 14.1348 140.03 14.4837 141.15 15.1814C142.292 15.879 143.18 16.8304 143.814 18.0355C144.47 19.2406 144.797 20.6148 144.797 22.1581C144.797 23.7015 144.47 25.0757 143.814 26.2808C143.18 27.4859 142.292 28.4372 141.15 29.1349C140.03 29.8326 138.74 30.1814 137.281 30.1814ZM136.394 25.8051C137.091 25.8051 137.694 25.6465 138.201 25.3294C138.73 25.0123 139.142 24.5788 139.438 24.0292C139.734 23.4795 139.882 22.8558 139.882 22.1581C139.882 21.4393 139.734 20.8051 139.438 20.2554C139.142 19.7057 138.73 19.2829 138.201 18.9869C137.694 18.6697 137.102 18.5112 136.425 18.5112C135.749 18.5112 135.146 18.6697 134.618 18.9869C134.11 19.2829 133.709 19.7057 133.413 20.2554C133.117 20.8051 132.969 21.4393 132.969 22.1581C132.969 22.8558 133.106 23.4795 133.381 24.0292C133.677 24.5788 134.089 25.0123 134.618 25.3294C135.146 25.6465 135.738 25.8051 136.394 25.8051Z" fill="#8C98A4"/>
<path d="M149.546 29.8958C150.434 30.1284 151.332 30.2446 152.241 30.2446C154.165 30.2446 155.687 29.8007 156.808 28.9127C157.949 28.0248 158.52 26.8303 158.52 25.3292C158.52 24.3567 158.341 23.5744 157.981 22.9825C157.622 22.3694 157.157 21.8831 156.586 21.5237C156.015 21.1643 155.412 20.8788 154.778 20.6674C154.144 20.456 153.541 20.2763 152.971 20.1283C152.4 19.9803 151.935 19.8112 151.575 19.6209C151.216 19.4306 151.036 19.1769 151.036 18.8598C151.036 18.5638 151.174 18.3418 151.448 18.1938C151.723 18.0247 152.135 17.9402 152.685 17.9402C153.256 17.9402 153.837 18.0564 154.429 18.289C155.042 18.5215 155.592 18.9233 156.078 19.4941L158.837 16.7034C158.14 15.8154 157.231 15.1494 156.11 14.7055C155.011 14.2404 153.806 14.0078 152.495 14.0078C151.248 14.0078 150.159 14.2192 149.229 14.642C148.298 15.0649 147.579 15.6463 147.072 16.3862C146.565 17.105 146.311 17.9613 146.311 18.955C146.311 19.8852 146.491 20.6569 146.85 21.27C147.209 21.8619 147.675 22.3271 148.245 22.6653C148.816 23.0036 149.419 23.2679 150.053 23.4581C150.687 23.6484 151.29 23.8281 151.861 23.9973C152.431 24.1453 152.897 24.325 153.256 24.5364C153.637 24.7267 153.827 25.0121 153.827 25.3926C153.827 25.6886 153.668 25.9211 153.351 26.0903C153.055 26.2594 152.622 26.344 152.051 26.344C151.226 26.344 150.465 26.196 149.768 25.9C149.07 25.5829 148.467 25.1495 147.96 24.5998L145.201 27.3905C145.73 27.9613 146.364 28.4688 147.104 28.9127C147.865 29.3355 148.679 29.6632 149.546 29.8958Z" fill="#8C98A4"/>
<path d="M167.367 30.2142C165.951 30.2142 164.693 29.9288 163.594 29.358C162.515 28.766 161.67 27.9626 161.057 26.9478C160.443 25.9119 160.137 24.728 160.137 23.396V14.4531H164.989V23.3326C164.989 23.8611 165.073 24.3157 165.243 24.6962C165.433 25.0768 165.708 25.3728 166.067 25.5842C166.427 25.7956 166.86 25.9013 167.367 25.9013C168.086 25.9013 168.657 25.6793 169.08 25.2353C169.503 24.7702 169.714 24.136 169.714 23.3326V14.4531H174.566V23.3643C174.566 24.7174 174.26 25.9119 173.646 26.9478C173.033 27.9626 172.188 28.766 171.109 29.358C170.031 29.9288 168.784 30.2142 167.367 30.2142Z" fill="#8C98A4"/>
<path d="M181.831 14.452H176.979V29.8643H181.831V20.8579C181.831 20.3294 181.937 19.8854 182.148 19.526C182.381 19.1666 182.688 18.8917 183.068 18.7015C183.449 18.49 183.882 18.3843 184.368 18.3843C185.066 18.3843 185.647 18.6063 186.112 19.0503C186.599 19.4731 186.842 20.0757 186.842 20.8579V29.8643H191.694V20.8579C191.694 20.3294 191.8 19.8854 192.011 19.526C192.244 19.1666 192.55 18.8917 192.931 18.7015C193.311 18.49 193.745 18.3843 194.231 18.3843C194.929 18.3843 195.51 18.6063 195.975 19.0503C196.461 19.4731 196.704 20.0757 196.704 20.8579V29.8643H201.557V20.3188C201.557 19.0292 201.282 17.9298 200.732 17.0207C200.203 16.0904 199.474 15.3822 198.544 14.896C197.635 14.3885 196.588 14.1348 195.404 14.1348C194.199 14.1348 193.11 14.3991 192.138 14.9277C191.506 15.2644 190.954 15.699 190.481 16.2314C190.04 15.6745 189.504 15.2188 188.871 14.8642C188.026 14.378 187.064 14.1348 185.986 14.1348C184.844 14.1348 183.819 14.378 182.91 14.8642C182.514 15.0665 182.155 15.3088 181.831 15.5911V14.452Z" fill="#8C98A4"/>
</g>
<defs>
<clipPath id="clip0_1287_347">
<rect width="202" height="40" fill="white"/>
</clipPath>
</defs>
</svg>
